<?xml version="1.0" encoding="utf-8"?>
<!-- Generator: Adobe Illustrator 16.0.0, SVG Export Plug-In . SVG Version: 6.00 Build 0)  -->
<!DOCTYPE svg PUBLIC "-//W3C//DTD SVG 1.1//EN" "http://www.w3.org/Graphics/SVG/1.1/DTD/svg11.dtd">
<svg version="1.1" id="Layer_1" xmlns="http://www.w3.org/2000/svg" xmlns:xlink="http://www.w3.org/1999/xlink" x="0px" y="0px"
	 width="264.557px" height="153.682px" viewBox="0 0 264.557 153.682" enable-background="new 0 0 264.557 153.682"
	 xml:space="preserve">
<g>
	<path fill-rule="evenodd" clip-rule="evenodd" fill="#BEBEBE" d="M41.205,65.787c43.982,0,179.348,0,223.353,0
		c0,7.154,0,14.044,0,21.225c-43.814,0-179.163,0-223.433,0c17.202,17.213,34.047,34.07,50.263,50.298
		c-5.068,5.636-9.794,10.892-14.721,16.372C50.817,127.644,25.382,102.021,0,76.454C25.661,50.9,51.15,25.517,76.773,0
		c4.78,4.615,9.909,9.566,14.833,14.32C74.766,31.517,58.115,48.52,41.205,65.787z"/>
</g>
</svg>
