<?xml version="1.0" encoding="utf-8"?>
<!-- Generator: Adobe Illustrator 16.0.0, SVG Export Plug-In . SVG Version: 6.00 Build 0)  -->
<!DOCTYPE svg PUBLIC "-//W3C//DTD SVG 1.1//EN" "http://www.w3.org/Graphics/SVG/1.1/DTD/svg11.dtd">
<svg version="1.1" id="Layer_1" xmlns="http://www.w3.org/2000/svg" xmlns:xlink="http://www.w3.org/1999/xlink" x="0px" y="0px"
	 width="21.437px" height="21.437px" viewBox="0 0 21.437 21.437" enable-background="new 0 0 21.437 21.437" xml:space="preserve">
<path fill="#FFFFFF" stroke="#B9BDBE" d="M0.5,10.719C0.5,5.075,5.075,0.5,10.719,0.5l0,0c5.644,0,10.218,4.575,10.218,10.219l0,0
	c0,5.644-4.574,10.218-10.218,10.218l0,0C5.075,20.937,0.5,16.363,0.5,10.719L0.5,10.719z"/>
<path fill="#E3506D" d="M4.907,10.718c0-3.209,2.603-5.812,5.812-5.812l0,0c3.21,0,5.812,2.602,5.812,5.812l0,0
	c0,3.21-2.602,5.812-5.812,5.812l0,0C7.509,16.53,4.907,13.928,4.907,10.718L4.907,10.718z"/>
</svg>
