<?xml version="1.0" encoding="utf-8"?>
<!-- Generator: Adobe Illustrator 16.0.0, SVG Export Plug-In . SVG Version: 6.00 Build 0)  -->
<!DOCTYPE svg PUBLIC "-//W3C//DTD SVG 1.1//EN" "http://www.w3.org/Graphics/SVG/1.1/DTD/svg11.dtd">
<svg version="1.1" id="Layer_1" xmlns="http://www.w3.org/2000/svg" xmlns:xlink="http://www.w3.org/1999/xlink" x="0px" y="0px"
	 width="22.674px" height="21.788px" viewBox="0 0 22.674 21.788" enable-background="new 0 0 22.674 21.788" xml:space="preserve">
<g>
	<polygon fill="#E94D70" points="8.011,9.579 7.547,12.012 7.085,14.445 9.552,14.214 12.018,13.978 10.015,11.778 	"/>
	<polygon fill="#E94D70" points="12.809,11.895 12.143,11.164 18.738,5.153 17.401,3.686 10.804,9.693 10.136,8.962 16.736,2.953 
		16.068,2.22 8.737,8.897 12.744,13.293 20.072,6.617 19.406,5.885 	"/>
	<path fill="#E94D70" d="M22.409,3.264l-2.67-2.934c-0.367-0.402-0.984-0.442-1.369-0.091l-0.073,0.099L18.28,0.318l-1.407,1.283
		l4.004,4.398l1.408-1.281l-0.018-0.02l0.105-0.062C22.761,4.286,22.775,3.667,22.409,3.264z"/>
</g>
<polyline fill="none" stroke="#E94D70" stroke-miterlimit="10" points="18.531,10.725 18.531,21.288 0.5,21.288 0.5,3.22 
	10.969,3.22 "/>
</svg>
