<svg xmlns="http://www.w3.org/2000/svg" width="22.674" height="21.788" viewBox="0 0 22.674 21.788">
    <g fill="#E94D70">
        <path d="M8.011 9.579l-.464 2.433-.462 2.433 2.467-.231 2.466-.236-2.003-2.2zM12.809 11.895l-.666-.731 6.595-6.011-1.337-1.467-6.597 6.007-.668-.731 6.6-6.009-.668-.733-7.331 6.677 4.007 4.396 7.328-6.676-.666-.732zM22.409 3.264L19.739.33c-.367-.402-.984-.442-1.369-.091l-.073.099-.017-.02-1.407 1.283 4.004 4.398 1.408-1.281-.018-.02.105-.062c.389-.35.403-.969.037-1.372z"/>
    </g>
    <path fill="none" stroke="#E94D70" stroke-miterlimit="10" d="M18.531 10.725v10.563H.5V3.22h10.469"/>
</svg>
