<?xml version="1.0" encoding="utf-8"?>
<!-- Generator: Adobe Illustrator 16.0.0, SVG Export Plug-In . SVG Version: 6.00 Build 0)  -->
<!DOCTYPE svg PUBLIC "-//W3C//DTD SVG 1.1//EN" "http://www.w3.org/Graphics/SVG/1.1/DTD/svg11.dtd">
<svg version="1.1" id="Layer_1" xmlns="http://www.w3.org/2000/svg" xmlns:xlink="http://www.w3.org/1999/xlink" x="0px" y="0px"
	 width="435.973px" height="408.878px" viewBox="62.175 27.716 435.973 408.878"
	 enable-background="new 62.175 27.716 435.973 408.878" xml:space="preserve">
<g>
	<g>
		<path fill="#4CB0CE" d="M298.93,221.438c7.969,14.345,15.938,27.095,22.312,41.438c36.655-22.312,73.312-44.625,109.969-66.938
			c-20.719-39.844-43.031-78.094-63.75-116.344c-36.656,22.312-73.312,44.625-109.969,66.938
			c7.969,14.344,14.344,27.094,22.312,41.438c-1.594,1.595-3.188,1.595-6.375,3.188c-65.344,35.062-129.094,71.719-194.438,106.781
			c-14.344,7.969-20.719,23.905-14.344,38.25c6.375,15.938,25.5,22.312,39.844,12.75c25.5-17.531,51-35.062,76.5-51
			c36.656-23.906,71.719-47.812,108.375-71.72C295.742,224.625,297.336,223.031,298.93,221.438z"/>
	</g>
	<g>
		<path fill="#4CB0CE" d="M498.148,436.594c0-6.375,0-12.75,0-19.125c-6.375,0-11.156,0-17.531,0c0-6.375,0-12.75,0-17.531
			c0-12.75-7.969-20.719-19.125-20.719c-54.188,0-108.375,0-162.562,0c-11.156,0-19.125,7.969-19.125,20.719
			c0,6.375,0,11.156-1.594,17.531c-6.375,0-11.156,1.594-17.531,1.594c0,6.375,0,11.156,0,17.531
			C340.367,436.594,418.461,436.594,498.148,436.594z"/>
	</g>
	<g>
		<path fill="#4CB0CE" d="M222.43,111.469c0,15.938,12.75,25.5,25.5,20.719c1.594,0,3.188-1.594,4.781-1.594
			c35.062-22.312,71.719-43.031,106.781-65.344c7.969-4.781,12.75-11.156,11.155-20.719c-1.594-14.344-15.938-20.719-27.094-14.344
			c-17.531,9.562-33.469,20.719-49.406,30.281c-19.125,12.75-39.844,23.906-58.969,36.656
			C225.617,100.312,222.43,105.094,222.43,111.469z"/>
	</g>
	<g>
		<path fill="#4CB0CE" d="M340.367,317.062c3.188-1.595,6.375-1.595,9.562-4.781c36.656-22.312,71.719-43.031,108.375-65.344
			c9.562-6.375,12.75-17.531,7.969-27.095c-4.78-9.562-15.938-12.75-25.5-6.375c-36.655,22.312-71.719,44.625-108.375,65.345
			c-7.969,4.78-11.155,12.75-9.562,22.312S332.398,315.469,340.367,317.062z"/>
	</g>
</g>
</svg>
