<svg xmlns="http://www.w3.org/2000/svg" width="435.973" height="408.878" viewBox="62.175 27.716 435.973 408.878">
    <path fill="#4CB0CE" d="M298.93 221.438c7.969 14.345 15.938 27.095 22.312 41.438l109.969-66.938c-20.719-39.844-43.031-78.094-63.75-116.344l-109.969 66.938c7.969 14.344 14.344 27.094 22.312 41.438-1.594 1.595-3.188 1.595-6.375 3.188-65.344 35.062-129.094 71.719-194.438 106.781-14.344 7.969-20.719 23.905-14.344 38.25 6.375 15.938 25.5 22.312 39.844 12.75 25.5-17.531 51-35.062 76.5-51 36.656-23.906 71.719-47.812 108.375-71.72 6.376-1.594 7.97-3.188 9.564-4.781zM498.148 436.594v-19.125h-17.531v-17.531c0-12.75-7.969-20.719-19.125-20.719H298.93c-11.156 0-19.125 7.969-19.125 20.719 0 6.375 0 11.156-1.594 17.531-6.375 0-11.156 1.594-17.531 1.594v17.531h237.468zM222.43 111.469c0 15.938 12.75 25.5 25.5 20.719 1.594 0 3.188-1.594 4.781-1.594 35.062-22.312 71.719-43.031 106.781-65.344 7.969-4.781 12.75-11.156 11.155-20.719-1.594-14.344-15.938-20.719-27.094-14.344-17.531 9.562-33.469 20.719-49.406 30.281-19.125 12.75-39.844 23.906-58.969 36.656-9.561 3.188-12.748 7.97-12.748 14.345zM340.367 317.062c3.188-1.595 6.375-1.595 9.562-4.781 36.656-22.312 71.719-43.031 108.375-65.344 9.562-6.375 12.75-17.531 7.969-27.095-4.78-9.562-15.938-12.75-25.5-6.375-36.655 22.312-71.719 44.625-108.375 65.345-7.969 4.78-11.155 12.75-9.562 22.312s9.562 14.345 17.531 15.938z"/>
</svg>
