<?xml version="1.0" encoding="utf-8"?>
<!-- Generator: Adobe Illustrator 16.0.0, SVG Export Plug-In . SVG Version: 6.00 Build 0)  -->
<!DOCTYPE svg PUBLIC "-//W3C//DTD SVG 1.1//EN" "http://www.w3.org/Graphics/SVG/1.1/DTD/svg11.dtd">
<svg version="1.1" id="Layer_1" xmlns="http://www.w3.org/2000/svg" xmlns:xlink="http://www.w3.org/1999/xlink" x="0px" y="0px"
	 width="509.593px" height="165.554px" viewBox="0 0 509.593 165.554" enable-background="new 0 0 509.593 165.554"
	 xml:space="preserve">
<polygon fill="#FFFFFF" points="164.075,123.468 142.231,123.468 142.231,102.366 127.56,102.366 127.56,161.053 142.231,161.053 
	142.231,136.324 164.075,136.324 164.075,161.053 178.746,161.053 178.746,102.366 164.075,102.366 "/>
<path fill="#FFFFFF" d="M206.4,102.366l-21.678,58.687h15.662l2.973-9.23h21.737l2.902,9.23h15.741l-22.171-58.687H206.4z
	 M206.588,140.941l7.478-24.229l7.61,24.229H206.588z"/>
<polygon fill="#FFFFFF" points="285.979,139.871 264.464,102.366 249.629,102.366 249.629,161.053 262.984,161.053 262.984,124.13 
	284.659,161.053 299.332,161.053 299.332,102.366 285.979,102.366 "/>
<path fill="#FFFFFF" d="M333.042,102.366h-22.746v58.687h22.746c9.396,0,16.622-2.279,21.682-6.841
	c5.492-4.944,8.239-12.445,8.239-22.501c0-10.059-2.747-17.557-8.239-22.502C349.664,104.649,342.438,102.366,333.042,102.366z
	 M344.584,144.444c-2.474,2.834-6.211,4.247-11.209,4.247h-8.409V114.73h8.325c4.998,0,8.749,1.416,11.249,4.245
	c2.501,2.832,3.751,7.077,3.751,12.735C348.292,137.372,347.056,141.617,344.584,144.444z"/>
<path fill="#FFFFFF" d="M408.048,130.885c4.121-0.988,7.199-2.607,9.232-4.86c2.031-2.251,3.051-5.108,3.051-8.573
	c0-5.056-1.648-8.831-4.946-11.332c-3.299-2.503-8.271-3.753-14.917-3.753h-28.684v58.687h26.703c8.023,0,14.024-1.399,18.013-4.204
	c3.98-2.801,5.97-6.976,5.97-12.527c0-4.123-1.399-7.36-4.2-9.725C415.743,132.454,412.334,131.215,408.048,130.885z
	 M385.797,113.247h12.198c2.635,0,4.53,0.387,5.683,1.153c1.323,0.937,1.979,2.584,1.979,4.949c0,2.029-0.629,3.556-1.897,4.571
	c-1.263,1.018-3.185,1.527-5.765,1.527h-12.198V113.247z M405.328,148.442c-1.649,1.153-4.122,1.731-7.415,1.731h-11.954v-13.85
	h14.593c2.687,0,4.568,0.552,5.643,1.652c1.073,1.1,1.604,2.882,1.604,5.356C407.798,145.585,406.979,147.289,405.328,148.442z"/>
<rect x="431.292" y="102.366" fill="#FFFFFF" width="14.672" height="58.687"/>
<path fill="#FFFFFF" d="M501.349,109.209c-5.053-4.56-12.277-6.843-21.674-6.843h-22.75v58.687h22.75
	c9.396,0,16.621-2.279,21.674-6.841c5.499-4.944,8.244-12.445,8.244-22.501C509.593,121.652,506.848,114.154,501.349,109.209z
	 M491.21,144.444c-2.469,2.834-6.207,4.247-11.205,4.247h-8.406V114.73h8.326c4.995,0,8.745,1.416,11.246,4.245
	c2.5,2.832,3.75,7.077,3.75,12.735C494.921,137.372,493.686,141.617,491.21,144.444z"/>
<g>
	<path fill="#FFFFFF" stroke="#FFFFFF" stroke-miterlimit="10" d="M77.96,95.773c-2.27,0-4.482,0.234-6.628,0.655
		c0-0.001,0.003-0.012,0.003-0.012s-0.051,0.014-0.125,0.032c-0.341,0.07-0.68,0.141-1.013,0.219
		c-2.08,0.355-6.286,0.514-6.286-3.983V60.934V53.78c0-5.647-4.602-10.219-10.281-10.219S43.351,48.133,43.351,53.78v7.153v40.146
		v18.595c0,3.582-2.716,4.057-3.778,4.106h-0.419c-3.556,0-3.624-4.106-3.624-4.106v-16.608v-0.102
		c0-5.683-4.599-10.28-10.281-10.28c-5.679,0-10.279,4.598-10.279,10.28v0.102v47.484c0,0,0.071,14.503,20.56,14.503v-14.503v-6.21
		h10.726c5.366,12.192,17.535,20.713,31.705,20.713c19.13,0,34.641-15.51,34.641-34.641C112.602,111.283,97.09,95.773,77.96,95.773z
		 M77.96,146.526c-8.898,0-16.115-7.215-16.115-16.113c0-8.897,7.216-16.112,16.115-16.112c8.896,0,16.115,7.215,16.115,16.112
		C94.075,139.312,86.857,146.526,77.96,146.526z"/>
	<path fill="none" stroke="#FFFFFF" d="M77.96,114.301c-8.898,0-16.115,7.215-16.115,16.112c0,8.898,7.216,16.113,16.115,16.113
		c8.896,0,16.115-7.215,16.115-16.113C94.075,121.516,86.857,114.301,77.96,114.301z"/>
	<path fill="#FFFFFF" stroke="#FFFFFF" stroke-miterlimit="10" d="M77.96,97.296c-2.083,0-4.214,0.211-6.336,0.627L71.235,98
		c-0.232,0.048-0.462,0.098-0.691,0.151l-0.045,0.01l-0.045,0.01c-0.141,0.022-0.28,0.044-0.419,0.063l-0.225,0.044v-0.015
		c-0.481,0.058-0.948,0.088-1.399,0.088c-3.771,0-6.022-2.118-6.022-5.667V60.934V53.78c0-4.795-3.93-8.697-8.758-8.697
		c-4.829,0-8.757,3.902-8.757,8.697v7.153v40.146v18.595c0,3.969-2.701,5.508-5.229,5.628l-0.491,0.001
		c-3.708,0-5.11-3.352-5.146-5.604v-16.633v-0.102c0-4.828-3.929-8.758-8.758-8.758c-4.828,0-8.757,3.93-8.757,8.758v0.102v47.484
		c0.007,0.502,0.377,12.292,17.515,12.952v-12.952v-6.21v-1.521h1.522h10.726h0.993l0.4,0.909
		c5.295,12.029,17.193,19.802,30.312,19.802c18.262,0,33.119-14.855,33.119-33.117C111.08,112.152,96.223,97.296,77.96,97.296z
		 M77.96,148.048c-9.725,0-17.638-7.911-17.638-17.635s7.913-17.634,17.638-17.634c9.725,0,17.637,7.91,17.637,17.634
		S87.686,148.048,77.96,148.048z"/>
	<path fill="#FFFFFF" stroke="#FFFFFF" stroke-miterlimit="10" d="M5.713,53.748c0-26.53,21.507-48.035,48.036-48.035
		c26.531,0,48.034,21.504,48.034,48.035c0,15.335-7.195,28.981-18.381,37.775c2.182,0.305,4.304,0.795,6.358,1.442
		c10.592-9.732,17.235-23.697,17.235-39.217c0-29.408-23.837-53.248-53.246-53.248C24.34,0.5,0.5,24.339,0.5,53.748
		c0,14.652,5.92,27.919,15.496,37.546c1.427-1.134,3.061-2.02,4.844-2.572C11.533,79.962,5.713,67.537,5.713,53.748z"/>
	<path fill="#FFFFFF" stroke="#FFFFFF" stroke-miterlimit="10" d="M20.946,53.748c0-18.116,14.687-32.802,32.803-32.802
		s32.804,14.686,32.804,32.802c0,12.792-7.329,23.868-18.013,29.276v6.574c14.078-5.813,23.988-19.67,23.988-35.85
		c0-21.417-17.362-38.778-38.779-38.778c-21.418,0-38.78,17.361-38.78,38.778c0,16.088,9.797,29.887,23.751,35.758v-6.604
		C28.167,77.45,20.946,66.445,20.946,53.748z"/>
	<path fill="#FFFFFF" stroke="#FFFFFF" stroke-miterlimit="10" d="M38.721,53.78c0-8.189,6.689-14.848,14.909-14.848
		c8.223,0,14.91,6.659,14.91,14.848v7.153V72.15c5.377-4.33,8.822-10.962,8.822-18.403c0-13.042-10.571-23.613-23.613-23.613
		S30.135,40.706,30.135,53.748c0,7.333,3.341,13.884,8.585,18.215V60.934V53.78z"/>
</g>
</svg>
