<svg xmlns="http://www.w3.org/2000/svg" width="174.18" height="53.25" viewBox="0 0 174.18 53.25">
    <path fill="#FFF" d="M52.638 39.57h-7.03v-6.79h-4.721v18.884h4.721v-7.957h7.03v7.957h4.72V32.78h-4.72zM66.257 32.78l-6.976 18.884h5.04l.956-2.968h6.995l.934 2.968h5.065L71.138 32.78h-4.881zm.06 12.413l2.407-7.797 2.449 7.797h-4.856zM91.866 44.849L84.941 32.78h-4.773v18.884h4.297V39.783l6.975 11.881h4.723V32.78h-4.297zM107.008 32.78h-7.32v18.884h7.32c3.024 0 5.35-.733 6.978-2.2 1.769-1.591 2.653-4.005 2.653-7.24 0-3.237-.885-5.649-2.653-7.241-1.628-1.468-3.953-2.203-6.978-2.203zm3.717 13.541c-.797.912-2.001 1.365-3.607 1.365h-2.708V36.757h2.68c1.608 0 2.816.457 3.62 1.368.806.91 1.208 2.276 1.208 4.098s-.399 3.187-1.193 4.098zM131.147 41.956c1.326-.317 2.315-.838 2.971-1.562.654-.725.982-1.644.982-2.758 0-1.629-.532-2.844-1.594-3.646-1.062-.806-2.661-1.209-4.8-1.209h-9.23v18.884h8.594c2.582 0 4.513-.449 5.796-1.351 1.282-.902 1.922-2.246 1.922-4.032 0-1.326-.451-2.368-1.353-3.13-.812-.691-1.909-1.089-3.288-1.196zm-7.162-5.676h3.927c.848 0 1.458.125 1.828.372.427.303.637.832.637 1.594 0 .652-.201 1.143-.61 1.471-.407.326-1.024.49-1.854.49h-3.927V36.28zm6.286 11.328c-.531.369-1.326.556-2.386.556h-3.848v-4.457h4.697c.862 0 1.469.178 1.814.532s.517.928.517 1.723c.001.726-.264 1.274-.794 1.646zM138.626 32.78h4.722v18.884h-4.722zM161.169 34.982c-1.626-1.467-3.951-2.202-6.974-2.202h-7.321v18.884h7.321c3.022 0 5.348-.733 6.974-2.2 1.771-1.591 2.653-4.005 2.653-7.24.001-3.238-.882-5.65-2.653-7.242zm-3.261 11.339c-.794.912-1.998 1.365-3.606 1.365h-2.706V36.757h2.68c1.608 0 2.814.457 3.62 1.368.804.91 1.206 2.276 1.206 4.098s-.397 3.187-1.194 4.098zM24.926 30.659c-.73 0-1.442.075-2.132.211l.001-.005-.041.011c-.109.022-.218.046-.326.07-.67.114-2.023.166-2.023-1.282V17.145c0-1.817-1.481-3.288-3.309-3.288s-3.308 1.471-3.308 3.288V38.347c0 1.154-.874 1.308-1.215 1.322h-.135c-1.145 0-1.167-1.322-1.167-1.322v-5.376c0-1.829-1.479-3.309-3.308-3.309s-3.308 1.479-3.308 3.309V48.284s.023 4.667 6.616 4.667v-6.665h3.452c1.727 3.923 5.643 6.665 10.202 6.665 6.156 0 11.147-4.99 11.147-11.147.001-6.154-4.99-11.145-11.146-11.145zm0 16.331a5.187 5.187 0 0 1 0-10.371 5.187 5.187 0 0 1 5.186 5.186 5.187 5.187 0 0 1-5.186 5.185z"/>
    <circle fill="none" cx="24.926" cy="41.805" r="5.185"/>
    <path fill="#FFF" d="M24.926 31.149c-.67 0-1.356.068-2.039.202l-.125.023c-.075.016-.149.031-.223.049l-.014.004-.015.002-.135.022-.072.013v-.004a3.94 3.94 0 0 1-.451.028c-1.213 0-1.937-.683-1.937-1.825V17.145c0-1.543-1.265-2.799-2.819-2.799s-2.817 1.256-2.817 2.799V38.347c0 1.278-.87 1.773-1.684 1.812h-.157c-1.193 0-1.645-1.079-1.656-1.804V32.97c0-1.554-1.265-2.818-2.818-2.818s-2.818 1.265-2.818 2.818V48.283c.002.162.122 3.956 5.636 4.168V45.795h4.26l.129.293a10.664 10.664 0 0 0 9.753 6.372c5.877 0 10.658-4.78 10.658-10.657.001-5.873-4.779-10.654-10.656-10.654zm0 16.332a5.682 5.682 0 0 1-5.675-5.676 5.681 5.681 0 0 1 5.675-5.674 5.682 5.682 0 0 1 5.676 5.674 5.683 5.683 0 0 1-5.676 5.676z"/>
    <path fill="#FFF" d="M1.677 17.134c0-8.537 6.921-15.457 15.458-15.457 8.537 0 15.457 6.92 15.457 15.457 0 4.935-2.315 9.326-5.915 12.156a12.74 12.74 0 0 1 2.046.465 17.094 17.094 0 0 0 5.546-12.621C34.269 7.671 26.599 0 17.135 0S0 7.671 0 17.134c0 4.715 1.905 8.984 4.987 12.082a4.79 4.79 0 0 1 1.559-.828 15.403 15.403 0 0 1-4.869-11.254z"/>
    <path fill="#FFF" d="M6.579 17.134c0-5.829 4.727-10.555 10.556-10.555 5.83 0 10.556 4.726 10.556 10.555 0 4.117-2.358 7.681-5.796 9.421v2.116c4.53-1.871 7.719-6.33 7.719-11.537 0-6.892-5.587-12.479-12.479-12.479-6.892 0-12.479 5.587-12.479 12.479 0 5.178 3.153 9.617 7.643 11.507v-2.124a10.555 10.555 0 0 1-5.72-9.383z"/>
    <path fill="#FFF" d="M12.299 17.145c0-2.635 2.153-4.778 4.798-4.778 2.646 0 4.798 2.143 4.798 4.778v5.911a7.6 7.6 0 1 0-9.597-.06v-5.851z"/>
</svg>
