<svg xmlns="http://www.w3.org/2000/svg" width="509.593" height="165.554" viewBox="0 0 509.593 165.554">
    <path fill="#FFF" d="M164.075 123.468h-21.844v-21.102H127.56v58.687h14.671v-24.729h21.844v24.729h14.671v-58.687h-14.671zM206.4 102.366l-21.678 58.687h15.662l2.973-9.23h21.737l2.902 9.23h15.741l-22.171-58.687H206.4zm.188 38.575l7.478-24.229 7.61 24.229h-15.088zM285.979 139.871l-21.515-37.505h-14.835v58.687h13.355V124.13l21.675 36.923h14.673v-58.687h-13.353zM333.042 102.366h-22.746v58.687h22.746c9.396 0 16.622-2.279 21.682-6.841 5.492-4.944 8.239-12.445 8.239-22.501 0-10.059-2.747-17.557-8.239-22.502-5.06-4.56-12.286-6.843-21.682-6.843zm11.542 42.078c-2.474 2.834-6.211 4.247-11.209 4.247h-8.409V114.73h8.325c4.998 0 8.749 1.416 11.249 4.245 2.501 2.832 3.751 7.077 3.751 12.735.001 5.662-1.235 9.907-3.707 12.734zM408.048 130.885c4.121-.988 7.199-2.607 9.232-4.86 2.031-2.251 3.051-5.108 3.051-8.573 0-5.056-1.648-8.831-4.946-11.332-3.299-2.503-8.271-3.753-14.917-3.753h-28.684v58.687h26.703c8.023 0 14.024-1.399 18.013-4.204 3.98-2.801 5.97-6.976 5.97-12.527 0-4.123-1.399-7.36-4.2-9.725-2.527-2.144-5.936-3.383-10.222-3.713zm-22.251-17.638h12.198c2.635 0 4.53.387 5.683 1.153 1.323.937 1.979 2.584 1.979 4.949 0 2.029-.629 3.556-1.897 4.571-1.263 1.018-3.185 1.527-5.765 1.527h-12.198v-12.2zm19.531 35.195c-1.649 1.153-4.122 1.731-7.415 1.731h-11.954v-13.85h14.593c2.687 0 4.568.552 5.643 1.652 1.073 1.1 1.604 2.882 1.604 5.356-.001 2.254-.82 3.958-2.471 5.111zM431.292 102.366h14.672v58.687h-14.672zM501.349 109.209c-5.053-4.56-12.277-6.843-21.674-6.843h-22.75v58.687h22.75c9.396 0 16.621-2.279 21.674-6.841 5.499-4.944 8.244-12.445 8.244-22.501 0-10.059-2.745-17.557-8.244-22.502zm-10.139 35.235c-2.469 2.834-6.207 4.247-11.205 4.247h-8.406V114.73h8.326c4.995 0 8.745 1.416 11.246 4.245 2.5 2.832 3.75 7.077 3.75 12.735 0 5.662-1.235 9.907-3.711 12.734z"/>
    <g stroke="#FFF">
        <path fill="#FFF" stroke-miterlimit="10" d="M77.96 95.773c-2.27 0-4.482.234-6.628.655l.003-.012-.125.032c-.341.07-.68.141-1.013.219-2.08.355-6.286.514-6.286-3.983V53.78c0-5.647-4.602-10.219-10.281-10.219S43.351 48.133 43.351 53.78v65.894c0 3.582-2.716 4.057-3.778 4.106h-.419c-3.556 0-3.624-4.106-3.624-4.106v-16.71c0-5.683-4.599-10.28-10.281-10.28a10.275 10.275 0 0 0-10.279 10.28v47.586s.071 14.503 20.56 14.503V144.34h10.726c5.366 12.192 17.535 20.713 31.705 20.713 19.13 0 34.641-15.51 34.641-34.641 0-19.129-15.512-34.639-34.642-34.639zm0 50.753c-8.898 0-16.115-7.215-16.115-16.113 0-8.897 7.216-16.112 16.115-16.112 8.896 0 16.115 7.215 16.115 16.112 0 8.899-7.218 16.113-16.115 16.113z"/>
        <path fill="none" d="M77.96 114.301c-8.898 0-16.115 7.215-16.115 16.112 0 8.898 7.216 16.113 16.115 16.113 8.896 0 16.115-7.215 16.115-16.113 0-8.897-7.218-16.112-16.115-16.112z"/>
        <path fill="#FFF" stroke-miterlimit="10" d="M77.96 97.296a33.02 33.02 0 0 0-6.336.627l-.389.077c-.232.048-.462.098-.691.151l-.045.01-.045.01c-.141.022-.28.044-.419.063l-.225.044v-.015c-.481.058-.948.088-1.399.088-3.771 0-6.022-2.118-6.022-5.667V53.78c0-4.795-3.93-8.697-8.758-8.697-4.829 0-8.757 3.902-8.757 8.697v65.894c0 3.969-2.701 5.508-5.229 5.628l-.491.001c-3.708 0-5.11-3.352-5.146-5.604v-16.735c0-4.828-3.929-8.758-8.758-8.758-4.828 0-8.757 3.93-8.757 8.758v47.586c.007.502.377 12.292 17.515 12.952v-20.683H47.249l.4.909c5.295 12.029 17.193 19.802 30.312 19.802 18.262 0 33.119-14.855 33.119-33.117 0-18.261-14.857-33.117-33.12-33.117zm0 50.752c-9.725 0-17.638-7.911-17.638-17.635s7.913-17.634 17.638-17.634c9.725 0 17.637 7.91 17.637 17.634s-7.911 17.635-17.637 17.635z"/>
        <path fill="#FFF" stroke-miterlimit="10" d="M5.713 53.748c0-26.53 21.507-48.035 48.036-48.035 26.531 0 48.034 21.504 48.034 48.035 0 15.335-7.195 28.981-18.381 37.775 2.182.305 4.304.795 6.358 1.442 10.592-9.732 17.235-23.697 17.235-39.217C106.995 24.34 83.158.5 53.749.5 24.34.5.5 24.339.5 53.748.5 68.4 6.42 81.667 15.996 91.294a14.85 14.85 0 0 1 4.844-2.572c-9.307-8.76-15.127-21.185-15.127-34.974z"/>
        <path fill="#FFF" stroke-miterlimit="10" d="M20.946 53.748c0-18.116 14.687-32.802 32.803-32.802s32.804 14.686 32.804 32.802c0 12.792-7.329 23.868-18.013 29.276v6.574c14.078-5.813 23.988-19.67 23.988-35.85 0-21.417-17.362-38.778-38.779-38.778-21.418 0-38.78 17.361-38.78 38.778 0 16.088 9.797 29.887 23.751 35.758v-6.604C28.167 77.45 20.946 66.445 20.946 53.748z"/>
        <path fill="#FFF" stroke-miterlimit="10" d="M38.721 53.78c0-8.189 6.689-14.848 14.909-14.848 8.223 0 14.91 6.659 14.91 14.848v18.37c5.377-4.33 8.822-10.962 8.822-18.403 0-13.042-10.571-23.613-23.613-23.613S30.135 40.706 30.135 53.748c0 7.333 3.341 13.884 8.585 18.215V53.78z"/>
    </g>
</svg>
