<?xml version="1.0" encoding="utf-8"?>
<!-- Generator: Adobe Illustrator 16.0.0, SVG Export Plug-In . SVG Version: 6.00 Build 0)  -->
<!DOCTYPE svg PUBLIC "-//W3C//DTD SVG 1.1//EN" "http://www.w3.org/Graphics/SVG/1.1/DTD/svg11.dtd">
<svg version="1.1" id="Layer_1" xmlns="http://www.w3.org/2000/svg" xmlns:xlink="http://www.w3.org/1999/xlink" x="0px" y="0px"
	 width="174.18px" height="53.25px" viewBox="0 0 174.18 53.25" enable-background="new 0 0 174.18 53.25" xml:space="preserve">
<polygon fill="#FFFFFF" points="52.638,39.57 45.608,39.57 45.608,32.78 40.887,32.78 40.887,51.664 45.608,51.664 45.608,43.707 
	52.638,43.707 52.638,51.664 57.358,51.664 57.358,32.78 52.638,32.78 "/>
<path fill="#FFFFFF" d="M66.257,32.78l-6.976,18.884h5.04l0.956-2.968h6.995l0.934,2.968h5.065L71.138,32.78H66.257z M66.317,45.193
	l2.407-7.797l2.449,7.797H66.317z"/>
<polygon fill="#FFFFFF" points="91.866,44.849 84.941,32.78 80.168,32.78 80.168,51.664 84.465,51.664 84.465,39.783 91.44,51.664 
	96.163,51.664 96.163,32.78 91.866,32.78 "/>
<path fill="#FFFFFF" d="M107.008,32.78h-7.32v18.884h7.32c3.024,0,5.35-0.733,6.978-2.2c1.769-1.591,2.653-4.005,2.653-7.24
	c0-3.237-0.885-5.649-2.653-7.241C112.358,33.515,110.033,32.78,107.008,32.78z M110.725,46.321
	c-0.797,0.912-2.001,1.365-3.607,1.365h-2.708V36.757h2.68c1.608,0,2.816,0.457,3.62,1.368c0.806,0.91,1.208,2.276,1.208,4.098
	S111.519,45.41,110.725,46.321z"/>
<path fill="#FFFFFF" d="M131.147,41.956c1.326-0.317,2.315-0.838,2.971-1.562c0.654-0.725,0.982-1.644,0.982-2.758
	c0-1.629-0.532-2.844-1.594-3.646c-1.062-0.806-2.661-1.209-4.8-1.209h-9.23v18.884h8.594c2.582,0,4.513-0.449,5.796-1.351
	c1.282-0.902,1.922-2.246,1.922-4.032c0-1.326-0.451-2.368-1.353-3.13C133.623,42.461,132.526,42.063,131.147,41.956z
	 M123.985,36.28h3.927c0.848,0,1.458,0.125,1.828,0.372c0.427,0.303,0.637,0.832,0.637,1.594c0,0.652-0.201,1.143-0.61,1.471
	c-0.407,0.326-1.024,0.49-1.854,0.49h-3.927V36.28z M130.271,47.608c-0.531,0.369-1.326,0.556-2.386,0.556h-3.848v-4.457h4.697
	c0.862,0,1.469,0.178,1.814,0.532s0.517,0.928,0.517,1.723C131.066,46.688,130.801,47.236,130.271,47.608z"/>
<rect x="138.626" y="32.78" fill="#FFFFFF" width="4.722" height="18.884"/>
<path fill="#FFFFFF" d="M161.169,34.982c-1.626-1.467-3.951-2.202-6.974-2.202h-7.321v18.884h7.321c3.022,0,5.348-0.733,6.974-2.2
	c1.771-1.591,2.653-4.005,2.653-7.24C163.823,38.986,162.94,36.574,161.169,34.982z M157.908,46.321
	c-0.794,0.912-1.998,1.365-3.606,1.365h-2.706V36.757h2.68c1.608,0,2.814,0.457,3.62,1.368c0.804,0.91,1.206,2.276,1.206,4.098
	S158.705,45.41,157.908,46.321z"/>
<g>
	<path fill="#FFFFFF" d="M24.926,30.659c-0.73,0-1.442,0.075-2.132,0.211l0.001-0.005c0,0-0.017,0.005-0.041,0.011
		c-0.109,0.022-0.218,0.046-0.326,0.07c-0.67,0.114-2.023,0.166-2.023-1.282V19.447v-2.302c0-1.817-1.481-3.288-3.309-3.288
		s-3.308,1.471-3.308,3.288v2.302v12.919v5.981c0,1.154-0.874,1.308-1.215,1.322h-0.135c-1.145,0-1.167-1.322-1.167-1.322v-5.343
		v-0.033c0-1.829-1.479-3.309-3.308-3.309s-3.308,1.479-3.308,3.309v0.033v15.28c0,0,0.023,4.667,6.616,4.667v-4.667v-1.998h3.452
		c1.727,3.923,5.643,6.665,10.202,6.665c6.156,0,11.147-4.99,11.147-11.147C36.073,35.65,31.082,30.659,24.926,30.659z
		 M24.926,46.99c-2.863,0-5.186-2.322-5.186-5.185c0-2.863,2.323-5.186,5.186-5.186c2.863,0,5.186,2.322,5.186,5.186
		C30.112,44.667,27.789,46.99,24.926,46.99z"/>
	<circle fill="none" cx="24.926" cy="41.805" r="5.185"/>
	<path fill="#FFFFFF" d="M24.926,31.149c-0.67,0-1.356,0.068-2.039,0.202l-0.125,0.023c-0.075,0.016-0.149,0.031-0.223,0.049
		l-0.014,0.004l-0.015,0.002c-0.045,0.007-0.09,0.014-0.135,0.022l-0.072,0.013V31.46c-0.156,0.018-0.306,0.028-0.451,0.028
		c-1.213,0-1.937-0.683-1.937-1.825V19.447v-2.302c0-1.543-1.265-2.799-2.819-2.799s-2.817,1.256-2.817,2.799v2.302v12.919v5.981
		c0,1.278-0.87,1.773-1.684,1.812h-0.157c-1.193,0-1.645-1.079-1.656-1.804v-5.352v-0.033c0-1.554-1.265-2.818-2.818-2.818
		s-2.818,1.265-2.818,2.818v0.033v15.28c0.002,0.162,0.122,3.956,5.636,4.168v-4.168v-1.998v-0.49h0.489h3.452h0.319l0.129,0.293
		c1.703,3.87,5.532,6.372,9.753,6.372c5.877,0,10.658-4.78,10.658-10.657C35.583,35.93,30.803,31.149,24.926,31.149z M24.926,47.481
		c-3.129,0-5.675-2.546-5.675-5.676c0-3.128,2.546-5.674,5.675-5.674c3.129,0,5.676,2.546,5.676,5.674
		C30.602,44.935,28.055,47.481,24.926,47.481z"/>
	<path fill="#FFFFFF" d="M1.677,17.134c0-8.537,6.921-15.457,15.458-15.457c8.537,0,15.457,6.92,15.457,15.457
		c0,4.935-2.315,9.326-5.915,12.156c0.702,0.099,1.385,0.257,2.046,0.465c3.408-3.133,5.546-7.626,5.546-12.621
		C34.269,7.671,26.599,0,17.135,0C7.671,0,0,7.671,0,17.134c0,4.715,1.905,8.984,4.987,12.082c0.458-0.365,0.985-0.649,1.559-0.828
		C3.55,25.57,1.677,21.572,1.677,17.134z"/>
	<path fill="#FFFFFF" d="M6.579,17.134c0-5.829,4.727-10.555,10.556-10.555c5.83,0,10.556,4.726,10.556,10.555
		c0,4.117-2.358,7.681-5.796,9.421v2.116c4.53-1.871,7.719-6.33,7.719-11.537c0-6.892-5.587-12.479-12.479-12.479
		c-6.892,0-12.479,5.587-12.479,12.479c0,5.178,3.153,9.617,7.643,11.507v-2.124C8.903,24.762,6.579,21.221,6.579,17.134z"/>
	<path fill="#FFFFFF" d="M12.299,17.145c0-2.635,2.153-4.778,4.798-4.778c2.646,0,4.798,2.143,4.798,4.778v2.302v3.609
		c1.73-1.394,2.839-3.527,2.839-5.922c0-4.196-3.402-7.599-7.599-7.599c-4.197,0-7.599,3.402-7.599,7.599
		c0,2.36,1.075,4.468,2.762,5.862v-3.549V17.145z"/>
</g>
</svg>
