<?xml version="1.0" encoding="utf-8"?>
<!-- Generator: Adobe Illustrator 16.0.0, SVG Export Plug-In . SVG Version: 6.00 Build 0)  -->
<!DOCTYPE svg PUBLIC "-//W3C//DTD SVG 1.1//EN" "http://www.w3.org/Graphics/SVG/1.1/DTD/svg11.dtd">
<svg version="1.1" id="Layer_1" xmlns="http://www.w3.org/2000/svg" xmlns:xlink="http://www.w3.org/1999/xlink" x="0px" y="0px"
	 width="28.066px" height="27.747px" viewBox="0 0 28.066 27.747" enable-background="new 0 0 28.066 27.747" xml:space="preserve">
<path fill="#4CB0CD" d="M26.701,24.002l-6.87-5.738c0.031-0.104,1.864-1.467,2.416-7.14C22.247,4.98,17.269,0,11.124,0
	C4.981,0,0,4.98,0,11.124c0,6.146,4.981,11.124,11.124,11.124c2.234,0,4.312-0.665,6.058-1.801c0.064,0.084,0.124,0.168,0.199,0.245
	l8.082,6.727c0.994,0.99,4.287-0.325,1.522-3.102 M11.124,19.834c-4.803,0-8.711-3.907-8.711-8.711c0-4.802,3.908-8.711,8.711-8.711
	c4.801,0,8.711,3.909,8.711,8.711c0,4.804-3.584,8.698-7.777,8.698"/>
</svg>
