<svg xmlns="http://www.w3.org/2000/svg" width="28.066" height="27.747" viewBox="0 0 28.066 27.747">
    <path fill="#4CB0CD" d="M26.701 24.002l-6.87-5.738c.031-.104 1.864-1.467 2.416-7.14C22.247 4.98 17.269 0 11.124 0 4.981 0 0 4.98 0 11.124c0 6.146 4.981 11.124 11.124 11.124a11.07 11.07 0 0 0 6.058-1.801c.064.084.124.168.199.245l8.082 6.727c.994.99 4.287-.325 1.522-3.102m-15.861-4.483c-4.803 0-8.711-3.907-8.711-8.711 0-4.802 3.908-8.711 8.711-8.711 4.801 0 8.711 3.909 8.711 8.711 0 4.804-3.584 8.698-7.777 8.698"/>
</svg>
