<?xml version="1.0" encoding="utf-8"?>
<!-- Generator: Adobe Illustrator 17.1.0, SVG Export Plug-In . SVG Version: 6.00 Build 0)  -->
<!DOCTYPE svg PUBLIC "-//W3C//DTD SVG 1.1//EN" "http://www.w3.org/Graphics/SVG/1.1/DTD/svg11.dtd">
<svg version="1.1" id="Layer_1" xmlns="http://www.w3.org/2000/svg" xmlns:xlink="http://www.w3.org/1999/xlink" x="0px" y="0px"
	 viewBox="0 0 216 216" enable-background="new 0 0 216 216" xml:space="preserve">
<path fill="#6D6E71" d="M108,0C48.6,0,0,48.6,0,108s48.6,108,108,108s108-48.6,108-108S167.4,0,108,0z M96.6,35H120v57.2
	c0,6.1-0.3,12-0.9,17.9c-0.6,5.8-1.4,12-2.4,18.6H99.9c-1-6.5-1.8-12.7-2.4-18.6c-0.6-5.8-0.9-11.8-0.9-17.9V35z M122,172
	c-0.8,1.8-1.9,3.4-3.2,4.8c-1.3,1.3-2.9,2.4-4.8,3.2c-1.9,0.8-3.8,1.2-5.9,1.2c-2.1,0-4.1-0.4-6-1.2c-1.9-0.8-3.5-1.8-4.9-3.2
	c-1.4-1.3-2.4-2.9-3.2-4.8c-0.8-1.8-1.2-3.8-1.2-6c0-2.1,0.4-4,1.2-5.9c0.8-1.9,1.8-3.5,3.2-4.8c1.4-1.3,3-2.4,4.9-3.2
	c1.9-0.8,3.9-1.2,6-1.2c2.1,0,4,0.4,5.9,1.2c1.9,0.8,3.5,1.9,4.8,3.2c1.3,1.3,2.4,2.9,3.2,4.8c0.8,1.9,1.2,3.8,1.2,5.9
	C123.2,168.2,122.8,170.1,122,172z"/>
</svg>
