<svg xmlns="http://www.w3.org/2000/svg" viewBox="0 0 216 216">
    <path fill="#6D6E71" d="M108 0C48.6 0 0 48.6 0 108s48.6 108 108 108 108-48.6 108-108S167.4 0 108 0zM96.6 35H120v57.2c0 6.1-.3 12-.9 17.9-.6 5.8-1.4 12-2.4 18.6H99.9c-1-6.5-1.8-12.7-2.4-18.6-.6-5.8-.9-11.8-.9-17.9V35zM122 172c-.8 1.8-1.9 3.4-3.2 4.8-1.3 1.3-2.9 2.4-4.8 3.2-1.9.8-3.8 1.2-5.9 1.2-2.1 0-4.1-.4-6-1.2-1.9-.8-3.5-1.8-4.9-3.2-1.4-1.3-2.4-2.9-3.2-4.8-.8-1.8-1.2-3.8-1.2-6 0-2.1.4-4 1.2-5.9.8-1.9 1.8-3.5 3.2-4.8 1.4-1.3 3-2.4 4.9-3.2 1.9-.8 3.9-1.2 6-1.2s4 .4 5.9 1.2c1.9.8 3.5 1.9 4.8 3.2 1.3 1.3 2.4 2.9 3.2 4.8.8 1.9 1.2 3.8 1.2 5.9 0 2.2-.4 4.1-1.2 6z"/>
</svg>
