<?xml version="1.0" encoding="utf-8"?>
<!-- Generator: Adobe Illustrator 16.0.0, SVG Export Plug-In . SVG Version: 6.00 Build 0)  -->
<!DOCTYPE svg PUBLIC "-//W3C//DTD SVG 1.1//EN" "http://www.w3.org/Graphics/SVG/1.1/DTD/svg11.dtd">
<svg version="1.1" id="Layer_1" xmlns="http://www.w3.org/2000/svg" xmlns:xlink="http://www.w3.org/1999/xlink" x="0px" y="0px"
	 width="122.914px" height="53.157px" viewBox="0 0 122.914 53.157" enable-background="new 0 0 122.914 53.157"
	 xml:space="preserve">
<g>
	<path fill="#27a459" d="M67.494,21.742c-0.52,0-1.023,0.054-1.514,0.15l0.002-0.004c0,0-0.014,0.004-0.029,0.008
		c-0.078,0.016-0.154,0.032-0.23,0.049c-0.477,0.082-1.436,0.118-1.436-0.908v-7.246v-1.633c0-1.289-1.051-2.332-2.348-2.332
		c-1.295,0-2.344,1.043-2.344,2.332v1.633v9.162v4.242c0,0.817-0.62,0.927-0.862,0.937h-0.096c-0.812,0-0.828-0.937-0.828-0.937
		v-3.79v-0.023c0-1.297-1.048-2.347-2.345-2.347c-1.298,0-2.347,1.049-2.347,2.347v0.023v10.837c0,0,0.017,3.31,4.691,3.31v-3.31
		v-1.417h2.448c1.225,2.781,4.002,4.727,7.235,4.727c4.367,0,7.905-3.539,7.905-7.905C75.399,25.282,71.859,21.742,67.494,21.742z
		 M67.494,33.324c-2.031,0-3.678-1.646-3.678-3.678c0-2.03,1.646-3.678,3.678-3.678c2.029,0,3.676,1.647,3.676,3.678
		S69.523,33.324,67.494,33.324z"/>
	<circle fill="none" cx="67.494" cy="29.647" r="3.677"/>
	<path fill="#27a459" d="M67.494,22.09c-0.477,0-0.963,0.048-1.447,0.144l-0.088,0.017c-0.055,0.012-0.105,0.021-0.158,0.034
		l-0.01,0.003l-0.012,0.002c-0.031,0.004-0.062,0.01-0.096,0.016l-0.051,0.009v-0.003c-0.111,0.013-0.217,0.021-0.32,0.021
		c-0.859,0-1.373-0.485-1.373-1.295v-7.245v-1.633c0-1.094-0.896-1.985-2-1.985c-1.101,0-1.997,0.891-1.997,1.985v1.633v9.162v4.242
		c0,0.905-0.616,1.257-1.194,1.284h-0.111c-0.846,0-1.166-0.765-1.174-1.279v-3.796v-0.023c0-1.102-0.897-1.998-1.999-1.998
		c-1.101,0-1.998,0.897-1.998,1.998v0.023v10.837c0.001,0.115,0.086,2.806,3.997,2.956v-2.956v-1.417v-0.348h0.346h2.448h0.227
		l0.092,0.208c1.208,2.744,3.922,4.519,6.917,4.519c4.168,0,7.559-3.39,7.559-7.558C75.051,25.48,71.66,22.09,67.494,22.09z
		 M67.494,33.672c-2.221,0-4.025-1.805-4.025-4.025c0-2.218,1.805-4.023,4.025-4.023c2.219,0,4.023,1.806,4.023,4.023
		C71.517,31.867,69.712,33.672,67.494,33.672z"/>
	<path fill="#27a459" d="M51.006,12.151c0-6.054,4.907-10.962,10.962-10.962c6.053,0,10.962,4.908,10.962,10.962
		c0,3.5-1.644,6.614-4.196,8.621c0.498,0.07,0.982,0.183,1.451,0.33c2.418-2.222,3.934-5.408,3.934-8.951
		C74.119,5.44,68.679,0,61.968,0c-6.712,0-12.152,5.44-12.152,12.151c0,3.344,1.351,6.372,3.536,8.568
		c0.325-0.258,0.699-0.46,1.105-0.586C52.334,18.134,51.006,15.298,51.006,12.151z"/>
	<path fill="#27a459" d="M54.482,12.151c0-4.134,3.352-7.485,7.486-7.485c4.135,0,7.484,3.352,7.484,7.485
		c0,2.92-1.672,5.447-4.109,6.681v1.501c3.213-1.327,5.475-4.489,5.475-8.182c0-4.887-3.963-8.85-8.85-8.85
		c-4.888,0-8.85,3.962-8.85,8.85c0,3.672,2.235,6.82,5.42,8.161v-1.507C56.13,17.561,54.482,15.049,54.482,12.151z"/>
	<path fill="#27a459" d="M58.538,12.159c0-1.869,1.527-3.388,3.403-3.388c1.877,0,3.402,1.52,3.402,3.388v1.633v2.559
		c1.227-0.988,2.014-2.501,2.014-4.2c0-2.976-2.412-5.389-5.389-5.389c-2.977,0-5.389,2.413-5.389,5.389
		c0,1.674,0.762,3.168,1.959,4.158v-2.517V12.159L58.538,12.159z"/>
</g>
<text transform="matrix(1 0 0 1 20.8501 50.5713)" fill="#27a459" font-family="'Lato-Medium'" font-size="9.5609">Powered by Handbid</text>
</svg>
