<svg xmlns="http://www.w3.org/2000/svg" width="122.914" height="53.157" viewBox="0 0 122.914 53.157">
    <path fill="#fff" d="M67.494 21.742a7.86 7.86 0 0 0-1.514.15l.002-.004-.029.008-.23.049c-.477.082-1.436.118-1.436-.908V12.158a2.34 2.34 0 0 0-2.348-2.332 2.337 2.337 0 0 0-2.344 2.332V27.195c0 .817-.62.927-.862.937h-.096c-.812 0-.828-.937-.828-.937v-3.813a2.344 2.344 0 0 0-2.345-2.347 2.345 2.345 0 0 0-2.347 2.347v10.86s.017 3.31 4.691 3.31v-4.727h2.448a7.907 7.907 0 0 0 7.235 4.727 7.904 7.904 0 0 0 7.905-7.905 7.902 7.902 0 0 0-7.902-7.905zm0 11.582a3.678 3.678 0 1 1 0-7.355 3.678 3.678 0 0 1 0 7.355z"/>
    <circle fill="none" cx="67.494" cy="29.647" r="3.677"/>
    <path fill="#fff" d="M67.494 22.09a7.45 7.45 0 0 0-1.447.144l-.088.017c-.055.012-.105.021-.158.034l-.01.003-.012.002c-.031.004-.062.01-.096.016l-.051.009v-.003a2.755 2.755 0 0 1-.32.021c-.859 0-1.373-.485-1.373-1.295V12.16a1.994 1.994 0 0 0-2-1.985 1.994 1.994 0 0 0-1.997 1.985V27.197c0 .905-.616 1.257-1.194 1.284h-.111c-.846 0-1.166-.765-1.174-1.279v-3.819a2 2 0 0 0-1.999-1.998 2.001 2.001 0 0 0-1.998 1.998v10.86c.001.115.086 2.806 3.997 2.956v-4.721h3.021l.092.208a7.563 7.563 0 0 0 6.917 4.519c4.168 0 7.559-3.39 7.559-7.558-.001-4.167-3.392-7.557-7.558-7.557zm0 11.582a4.028 4.028 0 0 1-4.025-4.025 4.028 4.028 0 0 1 4.025-4.023 4.028 4.028 0 0 1 4.023 4.023 4.028 4.028 0 0 1-4.023 4.025z"/>
    <path fill="#fff" d="M51.006 12.151c0-6.054 4.907-10.962 10.962-10.962 6.053 0 10.962 4.908 10.962 10.962 0 3.5-1.644 6.614-4.196 8.621.498.07.982.183 1.451.33a12.12 12.12 0 0 0 3.934-8.951C74.119 5.44 68.679 0 61.968 0c-6.712 0-12.152 5.44-12.152 12.151a12.11 12.11 0 0 0 3.536 8.568c.325-.258.699-.46 1.105-.586a10.932 10.932 0 0 1-3.451-7.982z"/>
    <path fill="#fff" d="M54.482 12.151a7.486 7.486 0 1 1 10.861 6.681v1.501a8.851 8.851 0 1 0-6.805-.021v-1.507a7.485 7.485 0 0 1-4.056-6.654z"/>
    <path fill="#fff" d="M58.538 12.159a3.4 3.4 0 0 1 3.403-3.388 3.398 3.398 0 0 1 3.402 3.388v4.192a5.389 5.389 0 1 0-6.805-.042v-4.15z"/>
    <text transform="translate(20.85 50.571)" fill="#fff" font-family="'Lato-Medium'" font-size="9.561">
        Powered by Handbid
    </text>
</svg>
