<svg xmlns="http://www.w3.org/2000/svg" width="37.188" height="23.7" viewBox="0 0 37.188 23.7">
    <path fill="none" stroke="#FFF" stroke-miterlimit="10" d="M.5 8.896a8.396 8.396 0 1 1 16.792 0c0 .849-1.4 5.929-4.377 8.849-4.249 4.17-10.51 6.261-10.25 5.167 1.04-4.375 7.74-7.17 5.163-7.17C3.19 15.742.5 13.534.5 8.896zM19.896 8.896a8.396 8.396 0 1 1 16.792 0c0 .848-1.4 5.928-4.377 8.848-4.249 4.17-10.51 6.262-10.25 5.168 1.04-4.375 7.74-7.17 5.163-7.17-4.638 0-7.328-2.209-7.328-6.846z"/>
</svg>
