<?xml version="1.0" encoding="utf-8"?>
<!-- Generator: Adobe Illustrator 16.0.0, SVG Export Plug-In . SVG Version: 6.00 Build 0)  -->
<!DOCTYPE svg PUBLIC "-//W3C//DTD SVG 1.1//EN" "http://www.w3.org/Graphics/SVG/1.1/DTD/svg11.dtd">
<svg version="1.1" id="Layer_1" xmlns="http://www.w3.org/2000/svg" xmlns:xlink="http://www.w3.org/1999/xlink" x="0px" y="0px"
	 width="37.188px" height="23.7px" viewBox="0 0 37.188 23.7" enable-background="new 0 0 37.188 23.7" xml:space="preserve">
<path fill="none" stroke="#FFFFFF" stroke-miterlimit="10" d="M0.5,8.896C0.5,4.259,4.259,0.5,8.896,0.5
	c4.637,0,8.396,3.759,8.396,8.396c0,0.849-1.4,5.929-4.377,8.849c-4.249,4.17-10.51,6.261-10.25,5.167
	c1.04-4.375,7.74-7.17,5.163-7.17C3.19,15.742,0.5,13.534,0.5,8.896z"/>
<path fill="none" stroke="#FFFFFF" stroke-miterlimit="10" d="M19.896,8.896c0-4.637,3.759-8.396,8.396-8.396
	c4.637,0,8.396,3.759,8.396,8.396c0,0.848-1.4,5.928-4.377,8.848c-4.249,4.17-10.51,6.262-10.25,5.168
	c1.04-4.375,7.74-7.17,5.163-7.17C22.586,15.742,19.896,13.533,19.896,8.896z"/>
</svg>
