<?xml version="1.0" encoding="utf-8"?>
<!-- Generator: Adobe Illustrator 16.0.0, SVG Export Plug-In . SVG Version: 6.00 Build 0)  -->
<!DOCTYPE svg PUBLIC "-//W3C//DTD SVG 1.1//EN" "http://www.w3.org/Graphics/SVG/1.1/DTD/svg11.dtd">
<svg version="1.1" id="Layer_1" xmlns="http://www.w3.org/2000/svg" xmlns:xlink="http://www.w3.org/1999/xlink" x="0px" y="0px"
	 width="612px" height="612px" viewBox="0 90 612 612" enable-background="new 0 90 612 612" xml:space="preserve">
<path fill="#4CB0CE" d="M306,90C137.7,90,0,227.7,0,396s137.7,306,306,306s306-137.7,306-306S474.3,90,306,90z M371.025,396H328.95
	c0,68.85,0,153,0,153h-63.113c0,0,0-84.15,0-153h-30.6v-53.55h30.6v-34.425c0-24.862,11.475-65.025,65.025-65.025h47.812v51.638
	c0,0-28.688,0-34.425,0s-13.388,1.912-13.388,15.3v32.513h47.812L371.025,396z"/>
</svg>
