<?xml version="1.0" encoding="utf-8"?>
<!-- Generator: Adobe Illustrator 16.0.0, SVG Export Plug-In . SVG Version: 6.00 Build 0)  -->
<!DOCTYPE svg PUBLIC "-//W3C//DTD SVG 1.1//EN" "http://www.w3.org/Graphics/SVG/1.1/DTD/svg11.dtd">
<svg version="1.1" id="Layer_1" xmlns="http://www.w3.org/2000/svg" xmlns:xlink="http://www.w3.org/1999/xlink" x="0px" y="0px"
	 width="612px" height="612px" viewBox="0 90 612 612" enable-background="new 0 90 612 612" xml:space="preserve">
<g>
	<path fill="#4CB0CE" d="M306,90C137.7,90,0,227.7,0,396s137.7,306,306,306s306-137.7,306-306S474.3,90,306,90z M476.213,483.975
		c0,15.301-5.738,21.038-21.038,21.038c-99.45,0-198.9,0-298.35,0c-15.3,0-21.038-5.737-21.038-21.038c0-57.375,0-116.662,0-174.037
		c0-15.3,5.737-21.038,21.038-21.038c49.725,0,99.45,0,149.175,0c49.725,0,99.45,0,149.175,0c15.3,0,21.038,5.738,21.038,21.038
		C476.213,367.312,476.213,424.688,476.213,483.975z"/>
	<path fill="#4CB0CE" d="M317.475,407.475c-7.649,3.825-13.387,3.825-21.037,0c-40.163-19.125-80.325-36.337-118.575-53.55
		c-1.912-1.912-5.737-1.912-7.65-3.825c0,42.075,0,82.238,0,122.4c91.8,0,183.6,0,275.4,0c0-40.162,0-80.325,0-122.4
		c-3.825,1.913-5.737,1.913-7.649,3.825C395.888,371.138,355.725,390.263,317.475,407.475z"/>
	<path fill="#4CB0CE" d="M309.825,378.788c15.3-7.65,30.6-13.388,47.812-21.038c26.774-11.475,55.462-24.862,82.237-36.337
		c0,0,0,0,0-1.913c-89.888,0-177.862,0-267.75,0c43.987,21.038,86.062,40.163,130.05,59.288
		C304.087,380.7,307.912,378.788,309.825,378.788z"/>
</g>
</svg>
