<?xml version="1.0" encoding="utf-8"?>
<!-- Generator: Adobe Illustrator 16.0.0, SVG Export Plug-In . SVG Version: 6.00 Build 0)  -->
<!DOCTYPE svg PUBLIC "-//W3C//DTD SVG 1.1//EN" "http://www.w3.org/Graphics/SVG/1.1/DTD/svg11.dtd">
<svg version="1.1" id="Layer_1" xmlns="http://www.w3.org/2000/svg" xmlns:xlink="http://www.w3.org/1999/xlink" x="0px" y="0px"
	 width="612px" height="612px" viewBox="0 90 612 612" enable-background="new 0 90 612 612" xml:space="preserve">
<path fill="#4CB0CE" d="M306,90C137.7,90,0,227.7,0,396s137.7,306,306,306s306-137.7,306-306S474.3,90,306,90z M338.513,464.85
	c-19.125,0-36.338-9.562-42.075-21.037c0,0-9.562,40.162-11.475,47.812c-7.65,26.775-30.6,55.463-32.512,57.375
	c-3.825,0-5.738,0-5.738-1.912c0-3.825-5.737-38.25,0-66.938c3.825-13.388,22.95-95.625,22.95-95.625s-5.738-11.475-5.738-28.688
	c0-26.775,15.3-45.9,34.425-45.9c15.3,0,22.95,11.475,22.95,26.775c0,15.3-9.562,40.163-15.3,63.113
	c-3.825,19.125,9.562,34.425,28.688,34.425c32.513,0,55.463-42.075,55.463-93.712c0-38.25-26.775-66.938-72.676-66.938
	c-53.55,0-86.062,40.163-86.062,84.15c0,15.3,3.825,26.775,11.475,34.425c3.825,3.825,3.825,5.737,1.912,9.562
	c0,3.825-1.912,11.476-3.825,13.388c-1.913,3.825-3.825,5.737-9.562,3.825c-24.863-9.562-36.337-36.338-36.337-66.938
	C195.075,302.288,237.15,243,321.3,243c66.938,0,110.925,47.812,110.925,101.362C432.225,413.213,393.975,464.85,338.513,464.85z"/>
</svg>
