<?xml version="1.0" encoding="utf-8"?>
<!-- Generator: Adobe Illustrator 16.0.0, SVG Export Plug-In . SVG Version: 6.00 Build 0)  -->
<!DOCTYPE svg PUBLIC "-//W3C//DTD SVG 1.1//EN" "http://www.w3.org/Graphics/SVG/1.1/DTD/svg11.dtd">
<svg version="1.1" id="Layer_1" xmlns="http://www.w3.org/2000/svg" xmlns:xlink="http://www.w3.org/1999/xlink" x="0px" y="0px"
	 width="612px" height="612px" viewBox="0 90 612 612" enable-background="new 0 90 612 612" xml:space="preserve">
<g>
	<path fill="#FFFFFF" d="M325.125,373.05L325.125,373.05C325.125,373.05,323.213,373.05,325.125,373.05L325.125,373.05z"/>
	<path fill="#FFFFFF" d="M306,90C137.7,90,0,227.7,0,396s137.7,306,306,306s306-137.7,306-306S474.3,90,306,90z M221.85,541.35
		h-65.025V344.362h65.025V541.35z M189.337,317.587L189.337,317.587c-22.95,0-36.337-15.3-36.337-34.425s15.3-34.425,36.337-34.425
		c22.95,0,36.337,15.3,36.337,34.425C227.587,302.288,212.288,317.587,189.337,317.587z M459,541.35h-65.025V436.162
		c0-26.774-9.562-43.987-32.512-43.987c-17.213,0-28.688,11.476-34.426,24.862c-1.912,3.825-1.912,9.562-1.912,15.301v110.925H260.1
		c0,0,0-177.863,0-196.988h65.025v28.688c9.562-13.387,24.862-32.512,59.287-32.512c43.988,0,74.588,28.688,74.588,87.975V541.35z"
		/>
</g>
</svg>
