<?xml version="1.0" encoding="utf-8"?>
<!-- Generator: Adobe Illustrator 16.0.0, SVG Export Plug-In . SVG Version: 6.00 Build 0)  -->
<!DOCTYPE svg PUBLIC "-//W3C//DTD SVG 1.1//EN" "http://www.w3.org/Graphics/SVG/1.1/DTD/svg11.dtd">
<svg version="1.1" id="Layer_1" xmlns="http://www.w3.org/2000/svg" xmlns:xlink="http://www.w3.org/1999/xlink" x="0px" y="0px"
	 width="612px" height="612px" viewBox="0 90 612 612" enable-background="new 0 90 612 612" xml:space="preserve">
<path fill="#FFFFFF" d="M306,90C137.7,90,0,227.7,0,396s137.7,306,306,306s306-137.7,306-306S474.3,90,306,90z M195.075,549
	C172.125,549,153,529.875,153,508.838c0-22.95,19.125-40.163,40.163-40.163c22.95,0,40.163,17.213,40.163,40.163
	C235.237,529.875,216.112,549,195.075,549z M296.438,549c0-38.25-15.3-74.588-42.075-101.362
	C227.587,420.862,191.25,405.562,153,405.562v-59.288c110.925,0,200.812,89.887,200.812,202.725H296.438z M399.713,549
	c0-135.787-110.925-246.712-246.713-246.712V243c168.3,0,306,137.7,306,306H399.713z"/>
</svg>
