<svg xmlns="http://www.w3.org/2000/svg" viewBox="0 0 1024 1024">
    <path d="M992 288H832V32H192v256H32c-17.6 0-32 14.4-32 32v416c0 17.6 14.4 32 32 32h160v224h640V768h160c17.6 0 32-14.4 32-32V320c0-17.6-14.4-32-32-32zM256 96h512v192H256V96zm512 832H256V608h512v320zm192-224H832V544H192v160H64V352h896v352zM160 480c8 0 16-3.2 22.4-9.6S192 456 192 448c0-8-3.2-16-9.6-22.4-12.8-12.8-33.6-12.8-44.8 0-6.4 6.4-9.6 14.4-9.6 22.4s3.2 16 9.6 22.4c4.8 6.4 14.4 9.6 22.4 9.6zm640 0h64c17.6 0 32-14.4 32-32s-14.4-32-32-32h-64c-17.6 0-32 14.4-32 32s14.4 32 32 32zM672 672H352c-17.6 0-32 14.4-32 32s14.4 32 32 32h320c17.6 0 32-14.4 32-32s-14.4-32-32-32zm0 128H352c-17.6 0-32 14.4-32 32s14.4 32 32 32h320c17.6 0 32-14.4 32-32s-14.4-32-32-32z"/>
</svg>
