<svg xmlns="http://www.w3.org/2000/svg" viewBox="0 0 928 1024">
    <path d="M924.8 326.4L649.6 51.2l-22.4 22.4c-16 16-36.8 24-57.6 24s-43.2-8-57.6-24l-22.4-22.4L3.2 536l22.4 24c30.4 30.4 32 81.6 1.6 113.6L6.4 696 280 969.6l22.4-20.8c32-30.4 81.6-28.8 113.6 1.6l22.4 22.4 486.4-486.4-22.4-22.4c-16-16-24-36.8-24-57.6s8-43.2 24-57.6l22.4-22.4zm-88 158.4l-400 400c-24-14.4-51.2-22.4-78.4-22.4-25.6 0-51.2 6.4-73.6 20.8l-192-192c27.2-46.4 27.2-105.6-1.6-152l400-400c46.4 28.8 110.4 28.8 156.8 0l190.4 190.4C824 352 816 379.2 816 408s6.4 54.4 20.8 76.8zM603.2 235.2c-32-32-83.2-32-113.6 0L190.4 534.4c-32 32-32 83.2 0 113.6L328 785.6c16 16 36.8 24 57.6 24s41.6-8 57.6-24l299.2-299.2c32-32 32-83.2 0-113.6L603.2 235.2zM696 441.6L396.8 740.8c-6.4 6.4-17.6 6.4-24 0L235.2 603.2c-3.2-3.2-4.8-8-4.8-11.2s1.6-8 4.8-11.2l299.2-299.2c3.2-3.2 8-4.8 11.2-4.8s8 1.6 11.2 4.8l137.6 137.6c8 4.8 8 16 1.6 22.4z"/>
</svg>
