<?xml version="1.0" encoding="utf-8"?>
<!-- Generator: Adobe Illustrator 16.0.0, SVG Export Plug-In . SVG Version: 6.00 Build 0)  -->
<!DOCTYPE svg PUBLIC "-//W3C//DTD SVG 1.1//EN" "http://www.w3.org/Graphics/SVG/1.1/DTD/svg11.dtd">
<svg version="1.1" id="Layer_1" xmlns="http://www.w3.org/2000/svg" xmlns:xlink="http://www.w3.org/1999/xlink" x="0px" y="0px"
	 width="612px" height="792px" viewBox="0 0 612 792" enable-background="new 0 0 612 792" xml:space="preserve">
<polygon fill="#20B1E3" points="215.939,437.104 194.095,437.104 194.095,416.002 179.424,416.002 179.424,474.688 194.095,474.688 
	194.095,449.96 215.939,449.96 215.939,474.688 230.609,474.688 230.609,416.002 215.939,416.002 "/>
<path fill="#20B1E3" d="M258.264,416.002l-21.678,58.687h15.662l2.973-9.23h21.737l2.902,9.23h15.741l-22.171-58.687H258.264z
	 M258.452,454.577l7.478-24.229l7.61,24.229H258.452z"/>
<polygon fill="#20B1E3" points="337.843,453.507 316.328,416.002 301.493,416.002 301.493,474.688 314.848,474.688 314.848,437.766 
	336.522,474.688 351.195,474.688 351.195,416.002 337.843,416.002 "/>
<path fill="#20B1E3" d="M384.905,416.002h-22.746v58.687h22.746c9.396,0,16.622-2.279,21.682-6.841
	c5.492-4.944,8.239-12.445,8.239-22.501c0-10.059-2.747-17.557-8.239-22.502C401.527,418.285,394.302,416.002,384.905,416.002z
	 M396.448,458.08c-2.474,2.834-6.211,4.247-11.209,4.247h-8.409v-33.961h8.325c4.998,0,8.749,1.416,11.249,4.245
	c2.501,2.832,3.751,7.077,3.751,12.735C400.155,451.008,398.92,455.253,396.448,458.08z"/>
<path fill="#0A66A6" d="M459.912,444.521c4.121-0.988,7.199-2.607,9.232-4.86c2.031-2.251,3.051-5.108,3.051-8.573
	c0-5.056-1.648-8.831-4.946-11.332c-3.299-2.503-8.271-3.753-14.917-3.753h-28.684v58.687h26.703c8.023,0,14.024-1.399,18.013-4.204
	c3.98-2.801,5.97-6.976,5.97-12.527c0-4.123-1.399-7.36-4.2-9.725C467.606,446.09,464.198,444.851,459.912,444.521z
	 M437.661,426.883h12.198c2.635,0,4.53,0.387,5.683,1.153c1.323,0.937,1.979,2.584,1.979,4.949c0,2.029-0.629,3.556-1.897,4.571
	c-1.263,1.018-3.185,1.527-5.765,1.527h-12.198V426.883z M457.191,462.078c-1.649,1.153-4.122,1.731-7.415,1.731h-11.954v-13.85
	h14.593c2.687,0,4.568,0.552,5.643,1.652c1.073,1.1,1.604,2.882,1.604,5.356C459.662,459.221,458.843,460.925,457.191,462.078z"/>
<rect x="483.155" y="416.002" fill="#0A66A6" width="14.672" height="58.687"/>
<path fill="#0A66A6" d="M553.213,422.845c-5.053-4.56-12.277-6.843-21.674-6.843h-22.75v58.687h22.75
	c9.396,0,16.621-2.279,21.674-6.841c5.499-4.944,8.244-12.445,8.244-22.501C561.457,435.288,558.712,427.79,553.213,422.845z
	 M543.074,458.08c-2.469,2.834-6.207,4.247-11.205,4.247h-8.406v-33.961h8.326c4.995,0,8.745,1.416,11.246,4.245
	c2.5,2.832,3.75,7.077,3.75,12.735C546.785,451.008,545.55,455.253,543.074,458.08z"/>
<g>
	<path fill="#0A66A6" d="M129.824,409.409c-2.27,0-4.482,0.234-6.628,0.655c0-0.001,0.003-0.012,0.003-0.012
		s-0.051,0.014-0.125,0.032c-0.341,0.07-0.68,0.141-1.013,0.219c-2.08,0.355-6.286,0.514-6.286-3.983v-31.751v-7.153
		c0-5.647-4.602-10.219-10.281-10.219s-10.279,4.572-10.279,10.219v7.153v40.146v18.595c0,3.582-2.716,4.057-3.778,4.106h-0.419
		c-3.556,0-3.624-4.106-3.624-4.106v-16.608v-0.102c0-5.683-4.599-10.28-10.281-10.28c-5.679,0-10.279,4.598-10.279,10.28v0.102
		v47.484c0,0,0.071,14.503,20.56,14.503v-14.503v-6.21h10.726c5.366,12.192,17.535,20.713,31.705,20.713
		c19.13,0,34.641-15.51,34.641-34.641C164.465,424.919,148.954,409.409,129.824,409.409z M129.824,460.162
		c-8.898,0-16.115-7.215-16.115-16.113c0-8.897,7.216-16.112,16.115-16.112c8.896,0,16.115,7.215,16.115,16.112
		C145.939,452.947,138.721,460.162,129.824,460.162z"/>
	<path fill="none" d="M129.824,427.937c-8.898,0-16.115,7.215-16.115,16.112c0,8.898,7.216,16.113,16.115,16.113
		c8.896,0,16.115-7.215,16.115-16.113C145.939,435.151,138.721,427.937,129.824,427.937z"/>
	<linearGradient id="SVGID_1_" gradientUnits="userSpaceOnUse" x1="115.6494" y1="305.4277" x2="115.6494" y2="440.9355">
		<stop  offset="0" style="stop-color:#2AAAE2"/>
		<stop  offset="0.0706" style="stop-color:#28A3DA"/>
		<stop  offset="0.3674" style="stop-color:#1E86C1"/>
		<stop  offset="0.6319" style="stop-color:#1474B1"/>
		<stop  offset="0.8518" style="stop-color:#0D6AA9"/>
		<stop  offset="1" style="stop-color:#0A66A6"/>
	</linearGradient>
	<path fill="url(#SVGID_1_)" d="M129.824,410.932c-2.083,0-4.214,0.211-6.336,0.627l-0.389,0.077
		c-0.232,0.048-0.462,0.098-0.691,0.151l-0.045,0.01l-0.045,0.01c-0.141,0.022-0.28,0.044-0.419,0.063l-0.225,0.044v-0.015
		c-0.481,0.058-0.948,0.088-1.399,0.088c-3.771,0-6.022-2.118-6.022-5.667v-31.751v-7.153c0-4.795-3.93-8.697-8.758-8.697
		c-4.829,0-8.757,3.902-8.757,8.697v7.153v40.146v18.595c0,3.969-2.701,5.508-5.229,5.628l-0.491,0.001
		c-3.708,0-5.11-3.352-5.146-5.604v-16.633v-0.102c0-4.828-3.929-8.758-8.758-8.758c-4.828,0-8.757,3.93-8.757,8.758v0.102v47.484
		c0.007,0.502,0.377,12.292,17.515,12.952v-12.952v-6.21v-1.521h1.522h10.726h0.993l0.4,0.909
		c5.295,12.029,17.193,19.802,30.312,19.802c18.262,0,33.119-14.855,33.119-33.117C162.943,425.788,148.086,410.932,129.824,410.932
		z M129.824,461.684c-9.725,0-17.638-7.911-17.638-17.635s7.913-17.634,17.638-17.634c9.725,0,17.637,7.91,17.637,17.634
		S139.549,461.684,129.824,461.684z"/>
	<path fill="#A0DBF7" d="M57.577,367.383c0-26.53,21.507-48.035,48.036-48.035c26.531,0,48.034,21.504,48.034,48.035
		c0,15.335-7.195,28.981-18.381,37.775c2.182,0.305,4.304,0.795,6.358,1.442c10.592-9.732,17.235-23.697,17.235-39.217
		c0-29.408-23.837-53.248-53.246-53.248c-29.409,0-53.249,23.839-53.249,53.248c0,14.652,5.92,27.919,15.496,37.546
		c1.427-1.134,3.061-2.02,4.844-2.572C63.397,393.598,57.577,381.173,57.577,367.383z"/>
	<path fill="#66BFEC" d="M72.81,367.383c0-18.116,14.687-32.802,32.803-32.802s32.804,14.686,32.804,32.802
		c0,12.792-7.329,23.868-18.013,29.276v6.574c14.078-5.813,23.988-19.67,23.988-35.85c0-21.417-17.362-38.778-38.779-38.778
		c-21.418,0-38.78,17.361-38.78,38.778c0,16.088,9.797,29.887,23.751,35.758v-6.604C80.031,391.086,72.81,380.081,72.81,367.383z"/>
	<path fill="#20B1E3" d="M90.584,367.416c0-8.189,6.689-14.848,14.909-14.848c8.223,0,14.91,6.659,14.91,14.848v7.153v11.217
		c5.377-4.33,8.822-10.962,8.822-18.403c0-13.042-10.571-23.613-23.613-23.613s-23.614,10.571-23.614,23.613
		c0,7.333,3.341,13.884,8.585,18.215v-11.029V367.416z"/>
</g>
</svg>
