<?xml version="1.0" encoding="utf-8"?>
<!-- Generator: Adobe Illustrator 16.0.0, SVG Export Plug-In . SVG Version: 6.00 Build 0)  -->
<!DOCTYPE svg PUBLIC "-//W3C//DTD SVG 1.1//EN" "http://www.w3.org/Graphics/SVG/1.1/DTD/svg11.dtd">
<svg version="1.1" id="Layer_1" xmlns="http://www.w3.org/2000/svg" xmlns:xlink="http://www.w3.org/1999/xlink" x="0px" y="0px"
	 width="612px" height="612px" viewBox="0 90 612 612" enable-background="new 0 90 612 612" xml:space="preserve">
<g>
	<path fill="#E94D70" d="M244.8,258.3c-24.862,0-40.162,22.95-36.337,55.463c3.825,32.512,26.775,53.55,51.638,55.462
		c24.862,0,38.25-19.125,34.425-51.638C288.788,285.075,267.75,258.3,244.8,258.3z"/>
	<path fill="#E94D70" d="M254.362,434.25c-36.337,0-66.938,22.95-66.938,49.725c0,26.775,26.775,49.726,63.113,49.726
		c51.637,0,68.85-21.038,68.85-49.726c0-3.824,0-5.737-1.913-9.562c-3.824-15.3-19.125-24.862-40.162-38.25
		C269.663,434.25,262.013,434.25,254.362,434.25z"/>
	<path fill="#E94D70" d="M306,90C137.7,90,0,227.7,0,396s137.7,306,306,306s306-137.7,306-306S474.3,90,306,90z M328.95,315.675
		c0,19.125-11.476,36.338-26.775,47.812c-15.3,11.475-17.212,17.213-17.212,26.775s19.125,21.037,26.775,28.688
		c28.688,21.037,34.425,36.337,34.425,63.112c0,34.425-36.337,68.85-95.625,68.85C196.987,549,153,527.963,153,493.537
		c0-34.425,36.337-70.762,89.888-70.762c5.737,0,11.475,0,17.212,0c-7.65-7.65-13.388-13.388-13.388-22.95
		c0-5.738,1.913-11.475,3.825-17.213c-1.913,0-5.738,0-9.562,0c-43.988,0-68.85-30.6-68.85-68.85
		c0-36.338,38.25-70.763,84.15-70.763c22.95,0,89.887,0,89.887,0l-21.037,21.038h-22.95C321.3,273.6,328.95,292.725,328.95,315.675z
		 M459,309.938h-42.075v42.075h-21.037v-42.075h-42.075V288.9h42.075v-42.075h21.037V288.9H459V309.938z"/>
</g>
</svg>
