<?xml version="1.0" encoding="utf-8"?>
<!-- Generator: Adobe Illustrator 16.0.0, SVG Export Plug-In . SVG Version: 6.00 Build 0)  -->
<!DOCTYPE svg PUBLIC "-//W3C//DTD SVG 1.1//EN" "http://www.w3.org/Graphics/SVG/1.1/DTD/svg11.dtd">
<svg version="1.1" id="Layer_1" xmlns="http://www.w3.org/2000/svg" xmlns:xlink="http://www.w3.org/1999/xlink" x="0px" y="0px"
	 width="612px" height="612px" viewBox="0 90 612 612" enable-background="new 0 90 612 612" xml:space="preserve">
<path fill="#E94D70" d="M306,90C137.088,90,0,228.312,0,396c0,167.688,137.088,306,306,306s306-137.088,306-306S474.912,90,306,90z
	 M428.4,334.8c0,2.448,0,6.12,0,7.344c0,82.008-63.648,177.48-177.48,177.48c-36.72,0-68.544-9.792-95.472-28.152
	c6.12,0,9.792,0,14.688,0c28.152,0,57.528-9.792,78.336-26.928c-26.928,0-50.184-19.584-58.752-44.063
	c3.672,0,7.344,2.447,11.016,2.447c6.12,0,11.016,0,17.136-2.447c-28.152-6.12-50.184-30.601-50.184-61.201l0,0
	c7.344,3.672,17.136,7.344,28.152,7.344c-17.136-11.016-28.152-30.6-28.152-51.408c0-11.016,3.672-23.256,7.344-33.048
	c30.6,37.944,75.888,63.648,129.744,64.872c-2.448-3.672-2.448-9.792-2.448-13.464c0-34.272,28.152-63.648,63.647-63.648
	c17.137,0,34.272,7.344,45.288,19.584c13.464-2.448,28.152-7.344,40.393-15.912c-3.672,15.912-14.688,26.928-26.929,34.272
	c13.465-2.448,24.48-6.12,36.721-9.792C451.656,313.992,439.416,325.008,428.4,334.8z"/>
</svg>
