<svg xmlns="http://www.w3.org/2000/svg" width="607.854" height="607.535" viewBox="4.351 92.214 607.854 607.535">
    <g fill="#DBE0E2">
        <path d="M549.435 138.387c2.251 0 4.951-1.8 6.752-3.601 12.753-12.453 25.206-25.056 37.81-37.509 5.851-5.852 11.553-6.602 15.604-2.401 4.201 4.201 3.301 9.752-2.551 15.604-11.703 11.703-23.105 23.556-35.108 34.958-4.352 4.201-6.151 8.402-6.002 14.704.75 24.006.45 48.012.601 72.018.3 59.715.75 119.58 1.2 179.294.15 8.852-2.551 15.604-9.002 21.905-86.121 85.821-171.942 171.792-257.914 257.613-11.703 11.702-21.005 11.702-32.708 0C183.045 605.901 97.974 520.98 13.053 435.91c-11.703-11.703-11.553-20.855.15-32.708C99.174 317.23 184.695 233.36 270.516 147.239c6.302-6.302 13.204-8.853 22.056-8.853 41.86.301 213.352.151 256.863.001zM50.562 418.205c79.369 79.37 156.938 156.938 235.107 235.258.3-.3 1.2-1.05 2.101-1.95 79.52-79.52 159.039-159.039 238.408-238.709 2.4-2.4 3.901-6.901 3.901-10.502-.3-73.518-.75-147.036-1.2-220.404v-6.602h-7.202c-72.768-.45-145.535-.75-218.153-1.5-6.001 0-10.052 1.801-14.253 6.001-77.869 78.02-155.738 155.888-233.757 233.907-1.951 1.801-3.751 3.602-4.952 4.501z"/>
        <path d="M219.054 498.775c-3.301 3.45-7.502 8.102-12.153 12.603-5.102 5.102-10.503 5.401-14.404 1.051-4.351-4.951-3.301-9.753 1.05-13.953 4.501-4.352 9.302-8.402 14.404-12.903-2.701-3.451-4.501-5.701-6.452-7.952-16.654-20.255-25.207-43.36-25.356-69.617 0-11.853 7.352-20.405 18.004-20.705 10.503-.3 19.055 7.952 19.205 19.655.45 35.408 20.855 57.613 48.912 74.568 9.752 5.851 20.555 7.651 31.658 3.301 18.905-7.353 26.707-24.906 19.055-45.312-2.4-6.752-6.451-12.903-10.502-18.904-6.602-9.902-14.253-19.355-20.705-29.408-10.502-16.354-17.554-34.058-13.203-53.863 8.702-39.459 55.814-60.165 92.273-40.81 7.052 3.75 13.203 8.852 21.604 14.553 4.501-5.101 9.603-10.803 14.704-16.504 4.351-4.651 9.302-6.001 14.554-1.65 4.501 3.751 3.751 9.603-1.501 15.004-5.551 5.701-11.402 11.103-17.404 16.804 11.253 15.304 19.655 31.058 22.355 49.362.15 1.05.45 1.95.45 3 1.801 13.654-4.951 23.856-16.354 24.907-11.253 1.05-18.905-6.902-20.855-20.556-3.301-22.055-15.304-39.009-33.458-51.012-13.354-8.852-31.208-3.451-38.409 10.953-1.801 3.601-2.101 9.002-.9 12.903 1.95 6.602 5.102 13.053 8.852 18.754 7.803 11.853 16.654 23.106 24.456 35.109 12.903 19.955 17.404 42.01 11.703 65.266-9.603 38.26-54.463 60.915-93.323 46.211-12.754-5.101-24.607-13.503-38.26-20.855zM494.821 233.36c0 13.503-10.953 24.306-24.306 24.006-12.903-.3-23.706-11.103-23.706-24.006 0-13.354 10.952-24.006 24.456-23.856 13.354.15 23.556 10.503 23.556 23.856z"/>
    </g>
</svg>
