<?xml version="1.0" encoding="utf-8"?>
<!-- Generator: Adobe Illustrator 16.0.0, SVG Export Plug-In . SVG Version: 6.00 Build 0)  -->
<!DOCTYPE svg PUBLIC "-//W3C//DTD SVG 1.1//EN" "http://www.w3.org/Graphics/SVG/1.1/DTD/svg11.dtd">
<svg version="1.1" id="Layer_1" xmlns="http://www.w3.org/2000/svg" xmlns:xlink="http://www.w3.org/1999/xlink" x="0px" y="0px"
	 width="607.854px" height="607.535px" viewBox="4.351 92.214 607.854 607.535"
	 enable-background="new 4.351 92.214 607.854 607.535" xml:space="preserve">
<g>
	<path fill="#DBE0E2" d="M549.435,138.387c2.251,0,4.951-1.8,6.752-3.601c12.753-12.453,25.206-25.056,37.81-37.509
		c5.851-5.852,11.553-6.602,15.604-2.401c4.201,4.201,3.301,9.752-2.551,15.604c-11.703,11.703-23.105,23.556-35.108,34.958
		c-4.352,4.201-6.151,8.402-6.002,14.704c0.75,24.006,0.45,48.012,0.601,72.018c0.3,59.715,0.75,119.58,1.2,179.294
		c0.15,8.852-2.551,15.604-9.002,21.905c-86.121,85.821-171.942,171.792-257.914,257.613c-11.703,11.702-21.005,11.702-32.708,0
		C183.045,605.901,97.974,520.98,13.053,435.91C1.35,424.207,1.5,415.055,13.203,403.202
		C99.174,317.23,184.695,233.36,270.516,147.239c6.302-6.302,13.204-8.853,22.056-8.853
		C334.432,138.687,505.924,138.537,549.435,138.387z M50.562,418.205c79.369,79.37,156.938,156.938,235.107,235.258
		c0.3-0.3,1.2-1.05,2.101-1.95c79.52-79.52,159.039-159.039,238.408-238.709c2.4-2.4,3.901-6.901,3.901-10.502
		c-0.3-73.518-0.75-147.036-1.2-220.404c0-1.95,0-3.901,0-6.602c-2.851,0-5.102,0-7.202,0c-72.768-0.45-145.535-0.75-218.153-1.5
		c-6.001,0-10.052,1.801-14.253,6.001c-77.869,78.02-155.738,155.888-233.757,233.907C53.563,415.505,51.763,417.306,50.562,418.205
		z"/>
	<path fill="#DBE0E2" d="M219.054,498.775c-3.301,3.45-7.502,8.102-12.153,12.603c-5.102,5.102-10.503,5.401-14.404,1.051
		c-4.351-4.951-3.301-9.753,1.05-13.953c4.501-4.352,9.302-8.402,14.404-12.903c-2.701-3.451-4.501-5.701-6.452-7.952
		c-16.654-20.255-25.207-43.36-25.356-69.617c0-11.853,7.352-20.405,18.004-20.705c10.503-0.3,19.055,7.952,19.205,19.655
		c0.45,35.408,20.855,57.613,48.912,74.568c9.752,5.851,20.555,7.651,31.658,3.301c18.905-7.353,26.707-24.906,19.055-45.312
		c-2.4-6.752-6.451-12.903-10.502-18.904c-6.602-9.902-14.253-19.355-20.705-29.408c-10.502-16.354-17.554-34.058-13.203-53.863
		c8.702-39.459,55.814-60.165,92.273-40.81c7.052,3.75,13.203,8.852,21.604,14.553c4.501-5.101,9.603-10.803,14.704-16.504
		c4.351-4.651,9.302-6.001,14.554-1.65c4.501,3.751,3.751,9.603-1.501,15.004c-5.551,5.701-11.402,11.103-17.404,16.804
		c11.253,15.304,19.655,31.058,22.355,49.362c0.15,1.05,0.45,1.95,0.45,3c1.801,13.654-4.951,23.856-16.354,24.907
		c-11.253,1.05-18.905-6.902-20.855-20.556c-3.301-22.055-15.304-39.009-33.458-51.012c-13.354-8.852-31.208-3.451-38.409,10.953
		c-1.801,3.601-2.101,9.002-0.9,12.903c1.95,6.602,5.102,13.053,8.852,18.754c7.803,11.853,16.654,23.106,24.456,35.109
		c12.903,19.955,17.404,42.01,11.703,65.266c-9.603,38.26-54.463,60.915-93.323,46.211
		C244.56,514.529,232.707,506.127,219.054,498.775z"/>
	<path fill="#DBE0E2" d="M494.821,233.36c0,13.503-10.953,24.306-24.306,24.006c-12.903-0.3-23.706-11.103-23.706-24.006
		c0-13.354,10.952-24.006,24.456-23.856C484.619,209.654,494.821,220.007,494.821,233.36z"/>
</g>
</svg>
