<?xml version="1.0" encoding="utf-8"?>
<!-- Generator: Adobe Illustrator 16.0.0, SVG Export Plug-In . SVG Version: 6.00 Build 0)  -->
<!DOCTYPE svg PUBLIC "-//W3C//DTD SVG 1.1//EN" "http://www.w3.org/Graphics/SVG/1.1/DTD/svg11.dtd">
<svg version="1.1" id="Layer_1" xmlns="http://www.w3.org/2000/svg" xmlns:xlink="http://www.w3.org/1999/xlink" x="0px" y="0px"
	 width="24px" height="24px" viewBox="0 0 24 24" enable-background="new 0 0 24 24" xml:space="preserve">
<g>
	<defs>
		<rect id="SVGID_1_" width="24" height="24"/>
	</defs>
	<clipPath id="SVGID_2_">
		<use xlink:href="#SVGID_1_"  overflow="visible"/>
	</clipPath>
	<path clip-path="url(#SVGID_2_)" fill="#E94D70" d="M12,1.723c5.667,0,10.277,4.611,10.277,10.277
		c0,5.667-4.61,10.277-10.277,10.277c-5.666,0-10.277-4.61-10.277-10.277C1.723,6.334,6.334,1.723,12,1.723 M12,0
		C5.373,0,0,5.373,0,12s5.373,12,12,12s12-5.373,12-12S18.627,0,12,0"/>
	<path clip-path="url(#SVGID_2_)" fill="#E94D70" d="M13.73,16.21c-0.286,0-0.573-0.109-0.792-0.328l-2.237-2.237
		c-0.203-0.202-0.328-0.48-0.329-0.789v-0.001v-0.003V6.375c0-0.618,0.501-1.119,1.12-1.119c0.618,0,1.119,0.501,1.119,1.119v6.014
		l1.911,1.91c0.437,0.437,0.437,1.146,0,1.583C14.304,16.101,14.017,16.21,13.73,16.21"/>
</g>
</svg>
