<svg xmlns="http://www.w3.org/2000/svg" xmlns:xlink="http://www.w3.org/1999/xlink" width="24" height="24" viewBox="0 0 24 24">
    <defs>
        <path id="a" d="M0 0h24v24H0z"/>
    </defs>
    <clipPath id="b">
        <use xlink:href="#a" overflow="visible"/>
    </clipPath>
    <path clip-path="url(#b)" fill="#E94D70" d="M12 1.723c5.667 0 10.277 4.611 10.277 10.277 0 5.667-4.61 10.277-10.277 10.277-5.666 0-10.277-4.61-10.277-10.277C1.723 6.334 6.334 1.723 12 1.723M12 0C5.373 0 0 5.373 0 12s5.373 12 12 12 12-5.373 12-12S18.627 0 12 0"/>
    <path clip-path="url(#b)" fill="#E94D70" d="M13.73 16.21c-.286 0-.573-.109-.792-.328l-2.237-2.237a1.112 1.112 0 0 1-.329-.789V6.375a1.12 1.12 0 0 1 2.239 0v6.014l1.911 1.91a1.12 1.12 0 0 1-.792 1.911"/>
</svg>
