<?xml version="1.0" encoding="utf-8"?>
<!-- Generator: Adobe Illustrator 16.0.0, SVG Export Plug-In . SVG Version: 6.00 Build 0)  -->
<!DOCTYPE svg PUBLIC "-//W3C//DTD SVG 1.1//EN" "http://www.w3.org/Graphics/SVG/1.1/DTD/svg11.dtd">
<svg version="1.1" id="Layer_1" xmlns="http://www.w3.org/2000/svg" xmlns:xlink="http://www.w3.org/1999/xlink" x="0px" y="0px"
	 width="139.741px" height="125.054px" viewBox="0 0 139.741 125.054" enable-background="new 0 0 139.741 125.054"
	 xml:space="preserve">
<g>
	<defs>
		<rect id="SVGID_1_" width="139.741" height="125.054"/>
	</defs>
	<clipPath id="SVGID_2_">
		<use xlink:href="#SVGID_1_"  overflow="visible"/>
	</clipPath>
	<path clip-path="url(#SVGID_2_)" fill="#9FB949" d="M64.21,59.677c-2.501,4.306-4.904,8.443-7.375,12.697
		c-11.967-6.909-23.779-13.728-35.696-20.607c6.897-11.949,13.718-23.766,20.615-35.714C53.691,22.943,65.5,29.76,77.461,36.664
		c-2.456,4.267-4.841,8.412-7.306,12.696c0.648,0.37,1.22,0.717,1.811,1.027c20.824,10.939,41.653,21.869,62.475,32.814
		c4.652,2.445,6.474,7.184,4.531,11.636c-2.217,5.082-8.18,6.837-13.085,3.765c-8.311-5.204-16.584-10.468-24.873-15.707
		c-11.657-7.368-23.315-14.737-34.975-22.103C65.508,60.456,64.966,60.137,64.21,59.677"/>
	<path clip-path="url(#SVGID_2_)" fill="#9FB949" d="M0,125.054v-5.786h5.909c0-1.934-0.013-3.683,0.003-5.432
		c0.035-3.88,2.361-6.35,6.245-6.358c17.408-0.04,34.816-0.038,52.225-0.002c3.834,0.007,6.096,2.324,6.281,6.138
		c0.087,1.82,0.209,3.64,0.321,5.564c1.992,0.147,3.805,0.281,5.657,0.417v5.459H0z"/>
	<path clip-path="url(#SVGID_2_)" fill="#9FB949" d="M89.192,25.684c0.043,4.944-4.116,7.808-8.042,6.25
		c-0.468-0.186-0.911-0.438-1.349-0.69c-11.491-6.632-22.973-13.281-34.477-19.892c-2.418-1.389-3.857-3.327-3.518-6.164
		c0.515-4.305,4.994-6.51,8.867-4.346c5.404,3.02,10.74,6.164,16.103,9.259c6.348,3.663,12.686,7.343,19.045,10.986
		C87.904,22.28,89.141,23.952,89.192,25.684"/>
	<path clip-path="url(#SVGID_2_)" fill="#9FB949" d="M50.91,88.658c-1.106-0.41-2.295-0.675-3.304-1.253
		C35.983,80.744,24.38,74.047,12.791,67.332c-3.332-1.931-4.361-5.389-2.594-8.375c1.722-2.909,5.201-3.712,8.427-1.856
		c11.667,6.711,23.323,13.439,34.969,20.186c2.645,1.532,3.775,4.1,3.082,6.695C55.961,86.652,53.713,88.411,50.91,88.658"/>
</g>
</svg>
