<svg xmlns="http://www.w3.org/2000/svg" xmlns:xlink="http://www.w3.org/1999/xlink" width="139.741" height="125.054" viewBox="0 0 139.741 125.054">
    <defs>
        <path id="a" d="M0 0h139.741v125.054H0z"/>
    </defs>
    <clipPath id="b">
        <use xlink:href="#a" overflow="visible"/>
    </clipPath>
    <path clip-path="url(#b)" fill="#9FB949" d="M64.21 59.677l-7.375 12.697-35.696-20.607 20.615-35.714 35.707 20.611-7.306 12.696c.648.37 1.22.717 1.811 1.027 20.824 10.939 41.653 21.869 62.475 32.814 4.652 2.445 6.474 7.184 4.531 11.636-2.217 5.082-8.18 6.837-13.085 3.765-8.311-5.204-16.584-10.468-24.873-15.707-11.657-7.368-23.315-14.737-34.975-22.103-.531-.336-1.073-.655-1.829-1.115M0 125.054v-5.786h5.909c0-1.934-.013-3.683.003-5.432.035-3.88 2.361-6.35 6.245-6.358 17.408-.04 34.816-.038 52.225-.002 3.834.007 6.096 2.324 6.281 6.138.087 1.82.209 3.64.321 5.564l5.657.417v5.459H0zM89.192 25.684c.043 4.944-4.116 7.808-8.042 6.25-.468-.186-.911-.438-1.349-.69-11.491-6.632-22.973-13.281-34.477-19.892-2.418-1.389-3.857-3.327-3.518-6.164.515-4.305 4.994-6.51 8.867-4.346 5.404 3.02 10.74 6.164 16.103 9.259 6.348 3.663 12.686 7.343 19.045 10.986 2.083 1.193 3.32 2.865 3.371 4.597M50.91 88.658c-1.106-.41-2.295-.675-3.304-1.253a8442.664 8442.664 0 0 1-34.815-20.073c-3.332-1.931-4.361-5.389-2.594-8.375 1.722-2.909 5.201-3.712 8.427-1.856a13039.25 13039.25 0 0 1 34.969 20.186c2.645 1.532 3.775 4.1 3.082 6.695-.714 2.67-2.962 4.429-5.765 4.676"/>
</svg>
