<?xml version="1.0" encoding="utf-8"?>
<!-- Generator: Adobe Illustrator 16.0.0, SVG Export Plug-In . SVG Version: 6.00 Build 0)  -->
<!DOCTYPE svg PUBLIC "-//W3C//DTD SVG 1.1//EN" "http://www.w3.org/Graphics/SVG/1.1/DTD/svg11.dtd">
<svg version="1.1" id="Layer_1" xmlns="http://www.w3.org/2000/svg" xmlns:xlink="http://www.w3.org/1999/xlink" x="0px" y="0px"
	 width="139.742px" height="125.055px" viewBox="0 0 139.742 125.055" enable-background="new 0 0 139.742 125.055"
	 xml:space="preserve">
<rect y="0" fill="none" width="139.742" height="125.055"/>
<path fill="#DBE0E2" d="M64.21,59.677c-2.501,4.307-4.904,8.443-7.375,12.697c-11.967-6.909-23.779-13.728-35.696-20.606
	c6.897-11.949,13.718-23.767,20.615-35.715C53.691,22.943,65.5,29.76,77.46,36.664c-2.455,4.268-4.84,8.412-7.306,12.696
	c0.648,0.37,1.22,0.717,1.812,1.027c20.824,10.938,41.652,21.868,62.475,32.813c4.652,2.445,6.475,7.184,4.531,11.636
	c-2.217,5.082-8.18,6.837-13.085,3.766c-8.312-5.204-16.584-10.469-24.873-15.707c-11.657-7.368-23.315-14.737-34.975-22.104
	C65.508,60.456,64.966,60.137,64.21,59.677"/>
<rect y="0" fill="none" width="139.742" height="125.055"/>
<path fill="#DBE0E2" d="M0,125.054v-5.786h5.909c0-1.935-0.013-3.684,0.003-5.433c0.035-3.88,2.361-6.35,6.245-6.357
	c17.408-0.04,34.816-0.038,52.225-0.002c3.834,0.007,6.096,2.323,6.282,6.138c0.086,1.82,0.209,3.64,0.32,5.563
	c1.992,0.147,3.805,0.281,5.657,0.417v5.46H0z"/>
<rect y="0" fill="none" width="139.742" height="125.055"/>
<path fill="#DBE0E2" d="M89.192,25.684c0.043,4.943-4.116,7.808-8.042,6.25c-0.468-0.187-0.911-0.438-1.35-0.69
	c-11.49-6.632-22.972-13.281-34.476-19.892c-2.418-1.39-3.857-3.327-3.518-6.164c0.515-4.306,4.994-6.511,8.867-4.347
	c5.404,3.021,10.74,6.164,16.103,9.26c6.349,3.663,12.687,7.343,19.045,10.985C87.904,22.28,89.141,23.952,89.192,25.684"/>
<rect y="0" fill="none" width="139.742" height="125.055"/>
<path fill="#DBE0E2" d="M50.91,88.658c-1.106-0.41-2.295-0.675-3.304-1.253C35.983,80.744,24.38,74.047,12.791,67.332
	c-3.332-1.931-4.361-5.389-2.594-8.375c1.722-2.909,5.201-3.712,8.427-1.855c11.667,6.711,23.323,13.438,34.969,20.186
	c2.645,1.532,3.775,4.101,3.082,6.695C55.961,86.652,53.713,88.411,50.91,88.658"/>
</svg>
