<svg xmlns="http://www.w3.org/2000/svg" width="139.742" height="125.055" viewBox="0 0 139.742 125.055">
    <path fill="none" d="M0 0h139.742v125.055H0z"/>
    <path fill="#DBE0E2" d="M64.21 59.677l-7.375 12.697a305990.67 305990.67 0 0 0-35.696-20.606l20.615-35.715L77.46 36.664a46030.7 46030.7 0 0 1-7.306 12.696c.648.37 1.22.717 1.812 1.027C92.79 61.325 113.618 72.255 134.441 83.2c4.652 2.445 6.475 7.184 4.531 11.636-2.217 5.082-8.18 6.837-13.085 3.766-8.312-5.204-16.584-10.469-24.873-15.707-11.657-7.368-23.315-14.737-34.975-22.104-.531-.335-1.073-.654-1.829-1.114"/>
    <path fill="none" d="M0 0h139.742v125.055H0z"/>
    <path fill="#DBE0E2" d="M0 125.054v-5.786h5.909c0-1.935-.013-3.684.003-5.433.035-3.88 2.361-6.35 6.245-6.357 17.408-.04 34.816-.038 52.225-.002 3.834.007 6.096 2.323 6.282 6.138.086 1.82.209 3.64.32 5.563l5.657.417v5.46H0z"/>
    <path fill="none" d="M0 0h139.742v125.055H0z"/>
    <path fill="#DBE0E2" d="M89.192 25.684c.043 4.943-4.116 7.808-8.042 6.25-.468-.187-.911-.438-1.35-.69-11.49-6.632-22.972-13.281-34.476-19.892-2.418-1.39-3.857-3.327-3.518-6.164C42.321.882 46.8-1.323 50.673.841c5.404 3.021 10.74 6.164 16.103 9.26 6.349 3.663 12.687 7.343 19.045 10.985 2.083 1.194 3.32 2.866 3.371 4.598"/>
    <path fill="none" d="M0 0h139.742v125.055H0z"/>
    <path fill="#DBE0E2" d="M50.91 88.658c-1.106-.41-2.295-.675-3.304-1.253a8442.664 8442.664 0 0 1-34.815-20.073c-3.332-1.931-4.361-5.389-2.594-8.375 1.722-2.909 5.201-3.712 8.427-1.855a12773.805 12773.805 0 0 1 34.969 20.186c2.645 1.532 3.775 4.101 3.082 6.695-.714 2.669-2.962 4.428-5.765 4.675"/>
</svg>
