<svg xmlns="http://www.w3.org/2000/svg" width="355.312" height="306.171" viewBox="0 0 355.312 306.171">
    <path opacity=".25" fill-rule="evenodd" clip-rule="evenodd" fill="#868686" d="M177.564 306.171c-7.116-5.178-14.303-10.289-21.365-15.566-35.021-26.171-68.57-54.057-98.847-85.691-16.161-16.887-31.196-34.692-42.931-55.041-6.226-10.796-11.337-22.05-13.444-34.461-2.208-13.017-.458-25.762 3.102-38.271 7.108-24.978 20.485-45.815 41.859-60.97C85.334-11.763 148.794-5.565 176.489 50.989c.359.733.712 1.469.814 1.68 4.424-6.686 8.418-13.918 13.537-20.243C209.491 9.384 233.954-1.246 263.486.391c31.588 1.752 55.07 17.616 72.479 43.22 10.771 15.842 17.032 33.452 18.972 52.53 1.654 16.257-2.282 31.348-9.633 45.763-9.306 18.252-21.569 34.4-35.041 49.684-25.933 29.421-55.173 55.314-85.888 79.56-14.508 11.451-29.53 22.252-44.325 33.341-.726.545-1.505 1.021-2.486 1.682z"/>
</svg>
