<?xml version="1.0" encoding="utf-8"?>
<!-- Generator: Adobe Illustrator 16.0.0, SVG Export Plug-In . SVG Version: 6.00 Build 0)  -->
<!DOCTYPE svg PUBLIC "-//W3C//DTD SVG 1.1//EN" "http://www.w3.org/Graphics/SVG/1.1/DTD/svg11.dtd">
<svg version="1.1" id="Layer_1" xmlns="http://www.w3.org/2000/svg" xmlns:xlink="http://www.w3.org/1999/xlink" x="0px" y="0px"
	 width="355.312px" height="306.171px" viewBox="0 0 355.312 306.171" enable-background="new 0 0 355.312 306.171"
	 xml:space="preserve">
<path opacity="0.25" fill-rule="evenodd" clip-rule="evenodd" fill="#868686" d="M177.564,306.171
	c-7.116-5.178-14.303-10.289-21.365-15.566c-35.021-26.171-68.57-54.057-98.847-85.691c-16.161-16.887-31.196-34.692-42.931-55.041
	c-6.226-10.796-11.337-22.05-13.444-34.461c-2.208-13.017-0.458-25.762,3.102-38.271c7.108-24.978,20.485-45.815,41.859-60.97
	C85.334-11.763,148.794-5.565,176.489,50.989c0.359,0.733,0.712,1.469,0.814,1.68c4.424-6.686,8.418-13.918,13.537-20.243
	c18.651-23.042,43.114-33.672,72.646-32.035c31.588,1.752,55.07,17.616,72.479,43.22c10.771,15.842,17.032,33.452,18.972,52.53
	c1.654,16.257-2.282,31.348-9.633,45.763c-9.306,18.252-21.569,34.4-35.041,49.684c-25.933,29.421-55.173,55.314-85.888,79.56
	c-14.508,11.451-29.53,22.252-44.325,33.341C179.324,305.034,178.545,305.51,177.564,306.171z"/>
</svg>
