<?xml version="1.0" encoding="utf-8"?>
<!-- Generator: Adobe Illustrator 16.0.0, SVG Export Plug-In . SVG Version: 6.00 Build 0)  -->
<!DOCTYPE svg PUBLIC "-//W3C//DTD SVG 1.1//EN" "http://www.w3.org/Graphics/SVG/1.1/DTD/svg11.dtd">
<svg version="1.1" id="Layer_1" xmlns="http://www.w3.org/2000/svg" xmlns:xlink="http://www.w3.org/1999/xlink" x="0px" y="0px"
	 width="32.001px" height="21.053px" viewBox="0 0 32.001 21.053" enable-background="new 0 0 32.001 21.053" xml:space="preserve">
<g>
	<defs>
		<rect id="SVGID_1_" x="2.979" y="1.959" width="26.042" height="17.133"/>
	</defs>
	<clipPath id="SVGID_2_">
		<use xlink:href="#SVGID_1_"  overflow="visible"/>
	</clipPath>
	<g opacity="0.5" clip-path="url(#SVGID_2_)">
		<g>
			<defs>
				<rect id="SVGID_3_" x="17.628" y="5.029" width="11.394" height="11.622"/>
			</defs>
			<clipPath id="SVGID_4_">
				<use xlink:href="#SVGID_3_"  overflow="visible"/>
			</clipPath>
			<g clip-path="url(#SVGID_4_)">
				<defs>
					<rect id="SVGID_5_" x="17.628" y="5.029" width="11.394" height="11.622"/>
				</defs>
				<clipPath id="SVGID_6_">
					<use xlink:href="#SVGID_5_"  overflow="visible"/>
				</clipPath>
				<path clip-path="url(#SVGID_6_)" fill="#9EB94A" d="M24.706,10.466v0.857c0.156,0.067,0.334,0.146,0.534,0.234
					s0.406,0.179,0.618,0.271c0.213,0.093,0.429,0.185,0.646,0.278c0.217,0.093,0.425,0.18,0.619,0.261
					c0.195,0.08,0.371,0.151,0.528,0.216c0.157,0.063,0.282,0.112,0.38,0.146c0.205,0.074,0.371,0.185,0.499,0.334
					c0.127,0.149,0.228,0.301,0.301,0.458c0.087,0.181,0.151,0.371,0.19,1.502v1.628H17.628v-2.559
					c0.044-0.2,0.109-0.391,0.197-0.571c0.072-0.157,0.173-0.309,0.301-0.458c0.127-0.149,0.29-0.26,0.49-0.334
					c0.103-0.033,0.237-0.084,0.403-0.15c0.166-0.065,0.352-0.142,0.557-0.227s0.422-0.177,0.649-0.274
					c0.227-0.099,0.452-0.195,0.677-0.293c0.226-0.099,0.438-0.19,0.638-0.278c0.201-0.089,0.377-0.167,0.527-0.235v-0.835
					c-0.009-0.039-0.025-0.099-0.047-0.18c-0.022-0.081-0.045-0.162-0.07-0.246c-0.028-0.097-0.063-0.203-0.103-0.314
					c-0.142-0.265-0.254-0.563-0.337-0.897s-0.125-0.69-0.125-1.066c0-0.494,0.054-0.913,0.158-1.252
					c0.105-0.343,0.247-0.621,0.429-0.836c0.181-0.216,0.392-0.371,0.633-0.469c0.243-0.099,0.503-0.147,0.781-0.147
					c0.273,0,0.53,0.048,0.772,0.144c0.242,0.095,0.454,0.249,0.638,0.46c0.183,0.213,0.327,0.492,0.433,0.836
					c0.105,0.343,0.157,0.766,0.157,1.264c0,0.367-0.041,0.714-0.121,1.044c-0.081,0.33-0.191,0.625-0.333,0.891
					c-0.039,0.12-0.076,0.236-0.11,0.342c-0.028,0.095-0.056,0.184-0.08,0.268C24.718,10.365,24.706,10.428,24.706,10.466"/>
			</g>
		</g>
	</g>
	<g opacity="0.5" clip-path="url(#SVGID_2_)">
		<g>
			<defs>
				<rect id="SVGID_7_" x="2.979" y="5.029" width="11.394" height="11.622"/>
			</defs>
			<clipPath id="SVGID_8_">
				<use xlink:href="#SVGID_7_"  overflow="visible"/>
			</clipPath>
			<g clip-path="url(#SVGID_8_)">
				<defs>
					<rect id="SVGID_9_" x="2.979" y="5.029" width="11.394" height="11.622"/>
				</defs>
				<clipPath id="SVGID_10_">
					<use xlink:href="#SVGID_9_"  overflow="visible"/>
				</clipPath>
				<path clip-path="url(#SVGID_10_)" fill="#9EB94A" d="M10.057,10.466v0.857c0.156,0.067,0.334,0.146,0.535,0.234
					s0.406,0.179,0.619,0.271c0.213,0.093,0.428,0.185,0.645,0.278c0.217,0.093,0.424,0.18,0.62,0.261
					c0.195,0.08,0.371,0.151,0.527,0.216c0.157,0.063,0.283,0.112,0.38,0.146c0.205,0.074,0.372,0.185,0.5,0.334
					c0.126,0.149,0.227,0.301,0.3,0.458c0.087,0.181,0.151,0.371,0.191,1.502v1.628H2.979v-2.559c0.044-0.2,0.109-0.391,0.197-0.571
					c0.073-0.157,0.173-0.309,0.301-0.458c0.126-0.149,0.29-0.26,0.491-0.334c0.103-0.033,0.237-0.084,0.403-0.15
					c0.166-0.065,0.351-0.142,0.557-0.227c0.205-0.085,0.421-0.177,0.649-0.274c0.226-0.099,0.453-0.195,0.676-0.293
					c0.226-0.099,0.438-0.19,0.638-0.278c0.201-0.089,0.377-0.167,0.527-0.235v-0.835c-0.009-0.039-0.025-0.099-0.047-0.18
					c-0.022-0.081-0.045-0.162-0.07-0.246C7.273,9.914,7.238,9.808,7.199,9.697C7.057,9.432,6.945,9.134,6.862,8.799
					s-0.125-0.69-0.125-1.066c0-0.494,0.053-0.913,0.158-1.252C7,6.138,7.143,5.86,7.324,5.645c0.18-0.216,0.392-0.371,0.633-0.469
					C8.2,5.078,8.459,5.029,8.738,5.029c0.274,0,0.531,0.048,0.773,0.144c0.241,0.095,0.454,0.249,0.637,0.46
					c0.183,0.213,0.328,0.492,0.433,0.836c0.105,0.343,0.157,0.766,0.157,1.264c0,0.367-0.041,0.714-0.121,1.044
					c-0.081,0.33-0.191,0.625-0.333,0.891c-0.039,0.12-0.076,0.236-0.11,0.342c-0.029,0.095-0.056,0.184-0.081,0.268
					C10.069,10.365,10.057,10.428,10.057,10.466"/>
			</g>
		</g>
	</g>
	<path clip-path="url(#SVGID_2_)" fill="#9EB94A" d="M18.368,11.279v1.47c0.268,0.117,0.573,0.251,0.917,0.402
		c0.343,0.15,0.695,0.305,1.061,0.465s0.732,0.317,1.104,0.478c0.373,0.159,0.729,0.307,1.062,0.447
		c0.335,0.136,0.637,0.26,0.904,0.369c0.269,0.109,0.485,0.192,0.653,0.25c0.351,0.127,0.636,0.316,0.854,0.573
		c0.217,0.255,0.388,0.515,0.515,0.784c0.15,0.311,0.26,0.637,0.326,0.98v1.595H6.234v-1.595c0.076-0.344,0.188-0.67,0.339-0.98
		c0.125-0.27,0.298-0.529,0.515-0.784c0.218-0.257,0.498-0.446,0.841-0.573c0.176-0.058,0.406-0.143,0.691-0.257
		c0.286-0.112,0.603-0.243,0.955-0.389c0.352-0.146,0.723-0.304,1.113-0.472c0.389-0.168,0.776-0.335,1.16-0.502
		c0.386-0.169,0.75-0.326,1.093-0.478c0.344-0.151,0.645-0.285,0.905-0.401V11.23c-0.017-0.066-0.044-0.17-0.081-0.309
		c-0.039-0.139-0.078-0.279-0.12-0.422c-0.049-0.166-0.109-0.346-0.176-0.54c-0.242-0.453-0.436-0.964-0.578-1.538
		s-0.214-1.183-0.214-1.828c0-0.846,0.091-1.563,0.271-2.148c0.181-0.587,0.425-1.063,0.736-1.431
		c0.309-0.369,0.671-0.638,1.086-0.804c0.414-0.169,0.859-0.251,1.337-0.251c0.47,0,0.911,0.082,1.325,0.245
		c0.415,0.163,0.778,0.426,1.093,0.79c0.313,0.365,0.561,0.842,0.741,1.433c0.181,0.589,0.271,1.312,0.271,2.167
		c0,0.629-0.069,1.224-0.208,1.79c-0.138,0.566-0.329,1.074-0.571,1.527c-0.066,0.208-0.13,0.404-0.188,0.588
		c-0.05,0.16-0.096,0.313-0.138,0.458C18.389,11.106,18.368,11.214,18.368,11.279"/>
</g>
<rect x="2.979" y="1.96" fill="none" width="26.042" height="17.133"/>
</svg>
