<svg xmlns="http://www.w3.org/2000/svg" xmlns:xlink="http://www.w3.org/1999/xlink" width="32.001" height="21.053" viewBox="0 0 32.001 21.053">
    <defs>
        <path id="a" d="M2.979 1.959h26.042v17.133H2.979z"/>
    </defs>
    <clipPath id="b">
        <use xlink:href="#a" overflow="visible"/>
    </clipPath>
    <g opacity=".5" clip-path="url(#b)">
        <defs>
            <path id="c" d="M17.628 5.029h11.394v11.622H17.628z"/>
        </defs>
        <clipPath id="d">
            <use xlink:href="#c" overflow="visible"/>
        </clipPath>
        <g clip-path="url(#d)">
            <defs>
                <path id="e" d="M17.628 5.029h11.394v11.622H17.628z"/>
            </defs>
            <clipPath id="f">
                <use xlink:href="#e" overflow="visible"/>
            </clipPath>
            <path clip-path="url(#f)" fill="#9EB94A" d="M24.706 10.466v.857c.156.067.334.146.534.234l.618.271c.213.093.429.185.646.278.217.093.425.18.619.261l.528.216c.157.063.282.112.38.146.205.074.371.185.499.334.127.149.228.301.301.458.087.181.151.371.19 1.502v1.628H17.628v-2.559c.044-.2.109-.391.197-.571.072-.157.173-.309.301-.458.127-.149.29-.26.49-.334.103-.033.237-.084.403-.15a66.168 66.168 0 0 0 1.206-.501l.677-.293.638-.278c.201-.089.377-.167.527-.235v-.835a5.165 5.165 0 0 0-.22-.74c-.142-.265-.254-.563-.337-.897s-.125-.69-.125-1.066c0-.494.054-.913.158-1.252.105-.343.247-.621.429-.836.181-.216.392-.371.633-.469.243-.099.503-.147.781-.147.273 0 .53.048.772.144.242.095.454.249.638.46.183.213.327.492.433.836.105.343.157.766.157 1.264 0 .367-.041.714-.121 1.044-.081.33-.191.625-.333.891l-.11.342c-.028.095-.056.184-.08.268a.802.802 0 0 0-.036.187"/>
        </g>
    </g>
    <g opacity=".5" clip-path="url(#b)">
        <defs>
            <path id="g" d="M2.979 5.029h11.394v11.622H2.979z"/>
        </defs>
        <clipPath id="h">
            <use xlink:href="#g" overflow="visible"/>
        </clipPath>
        <g clip-path="url(#h)">
            <defs>
                <path id="i" d="M2.979 5.029h11.394v11.622H2.979z"/>
            </defs>
            <clipPath id="j">
                <use xlink:href="#i" overflow="visible"/>
            </clipPath>
            <path clip-path="url(#j)" fill="#9EB94A" d="M10.057 10.466v.857c.156.067.334.146.535.234s.406.179.619.271c.213.093.428.185.645.278.217.093.424.18.62.261l.527.216c.157.063.283.112.38.146.205.074.372.185.5.334.126.149.227.301.3.458.087.181.151.371.191 1.502v1.628H2.979v-2.559c.044-.2.109-.391.197-.571.073-.157.173-.309.301-.458.126-.149.29-.26.491-.334.103-.033.237-.084.403-.15.166-.065.351-.142.557-.227.205-.085.421-.177.649-.274.226-.099.453-.195.676-.293l.638-.278c.201-.089.377-.167.527-.235v-.835a10.562 10.562 0 0 0-.117-.426 5.913 5.913 0 0 0-.102-.314c-.142-.265-.254-.563-.337-.898s-.125-.69-.125-1.066c0-.494.053-.913.158-1.252a2.35 2.35 0 0 1 .429-.836c.18-.216.392-.371.633-.469.243-.098.502-.147.781-.147.274 0 .531.048.773.144.241.095.454.249.637.46.183.213.328.492.433.836.105.343.157.766.157 1.264 0 .367-.041.714-.121 1.044-.081.33-.191.625-.333.891l-.11.342-.081.268a.817.817 0 0 0-.036.188"/>
        </g>
    </g>
    <path clip-path="url(#b)" fill="#9EB94A" d="M18.368 11.279v1.47l.917.402 1.061.465c.366.16.732.317 1.104.478.373.159.729.307 1.062.447l.904.369c.269.109.485.192.653.25.351.127.636.316.854.573.217.255.388.515.515.784.15.311.26.637.326.98v1.595H6.234v-1.595c.076-.344.188-.67.339-.98.125-.27.298-.529.515-.784.218-.257.498-.446.841-.573.176-.058.406-.143.691-.257a89.856 89.856 0 0 0 2.068-.861l1.16-.502c.386-.169.75-.326 1.093-.478.344-.151.645-.285.905-.401V11.23a39.41 39.41 0 0 0-.081-.309c-.039-.139-.078-.279-.12-.422a12.723 12.723 0 0 0-.176-.54c-.242-.453-.436-.964-.578-1.538s-.214-1.183-.214-1.828c0-.846.091-1.563.271-2.148.181-.587.425-1.063.736-1.431a2.732 2.732 0 0 1 1.086-.804 3.5 3.5 0 0 1 1.337-.251c.47 0 .911.082 1.325.245.415.163.778.426 1.093.79.313.365.561.842.741 1.433.181.589.271 1.312.271 2.167 0 .629-.069 1.224-.208 1.79a6.486 6.486 0 0 1-.571 1.527l-.188.588c-.05.16-.096.313-.138.458a1.338 1.338 0 0 0-.064.322"/>
    <path fill="none" d="M2.979 1.96h26.042v17.133H2.979z"/>
</svg>
